<svg width="20" height="20" viewBox="0 0 20 20" fill="none" xmlns="http://www.w3.org/2000/svg">
<path d="M8.3335 14.1667L11.6668 14.1667M8.3335 11.6667L11.6668 11.6667M8.3335 9.16667L11.6668 9.16667M8.3335 6.66667L11.6668 6.66667M5.8335 15L5.8335 5.83334C5.8335 5.39131 6.00909 4.96739 6.32165 4.65483C6.63421 4.34227 7.05813 4.16667 7.50016 4.16667L7.91683 4.16667C8.02734 4.16667 8.13332 4.12277 8.21146 4.04463C8.2896 3.96649 8.3335 3.86051 8.3335 3.75001C8.3335 3.6395 8.37739 3.53352 8.45553 3.45538C8.53367 3.37724 8.63966 3.33334 8.75016 3.33334L11.2502 3.33334C11.3607 3.33334 11.4667 3.37724 11.5448 3.45538C11.6229 3.53352 11.6668 3.6395 11.6668 3.75001C11.6668 3.86051 11.7107 3.96649 11.7889 4.04463C11.867 4.12277 11.973 4.16667 12.0835 4.16667L12.5002 4.16667C12.9422 4.16667 13.3661 4.34227 13.6787 4.65483C13.9912 4.96739 14.1668 5.39131 14.1668 5.83334L14.1668 15C14.1668 15.442 13.9912 15.866 13.6787 16.1785C13.3661 16.4911 12.9422 16.6667 12.5002 16.6667L7.50016 16.6667C7.05814 16.6667 6.63421 16.4911 6.32165 16.1785C6.00909 15.866 5.8335 15.442 5.8335 15Z" stroke="#00EC97" stroke-width="1.66667" stroke-linecap="round" stroke-linejoin="round"/>
</svg>
