<svg width="16" height="16" viewBox="0 0 16 16" fill="none" xmlns="http://www.w3.org/2000/svg">
<path d="M6.50664 2.94449C5.50303 2.46533 4.10025 2.2306 2.22219 2.22227C2.04507 2.21986 1.87143 2.27151 1.72441 2.37033C1.60374 2.45189 1.50497 2.56186 1.43677 2.69055C1.36857 2.81925 1.33304 2.96273 1.3333 3.10838V11.0556C1.3333 11.5928 1.71553 11.9981 2.22219 11.9981C4.19636 11.9981 6.17664 12.1825 7.36275 13.3037C7.37897 13.3191 7.39937 13.3294 7.4214 13.3333C7.44343 13.3372 7.46612 13.3345 7.48666 13.3257C7.5072 13.3168 7.52467 13.3021 7.53692 13.2833C7.54916 13.2646 7.55563 13.2427 7.55553 13.2203V3.85616C7.55556 3.79298 7.54203 3.73054 7.51587 3.67303C7.4897 3.61553 7.45151 3.56431 7.40386 3.52283C7.13217 3.29056 6.83037 3.09602 6.50664 2.94449ZM14.2755 2.36949C14.1284 2.27092 13.9548 2.21956 13.7777 2.22227C11.8997 2.2306 10.4969 2.46421 9.4933 2.94449C9.16959 3.09575 8.86771 3.2899 8.5958 3.52171C8.54825 3.56326 8.51013 3.6145 8.48402 3.67199C8.45791 3.72948 8.4444 3.7919 8.44441 3.85505V13.2198C8.4444 13.2413 8.45074 13.2623 8.46263 13.2802C8.47452 13.2981 8.49143 13.3121 8.51125 13.3205C8.53107 13.3288 8.55291 13.3311 8.57403 13.3271C8.59515 13.323 8.61461 13.3129 8.62997 13.2978C9.34303 12.5895 10.5944 11.9973 13.7789 11.9975C14.0146 11.9975 14.2407 11.9039 14.4074 11.7372C14.5741 11.5705 14.6677 11.3444 14.6677 11.1087V3.10866C14.6681 2.96272 14.6325 2.81895 14.5641 2.69004C14.4957 2.56112 14.3966 2.45103 14.2755 2.36949Z" fill="#B3B3B3"/>
</svg>
