<svg width="17" height="16" viewBox="0 0 17 16" fill="none" xmlns="http://www.w3.org/2000/svg">
<path fill-rule="evenodd" clip-rule="evenodd" d="M8.97184 1.52869C8.84682 1.40371 8.67728 1.3335 8.50051 1.3335C8.32373 1.3335 8.15419 1.40371 8.02918 1.52869L6.02918 3.52869C5.90419 3.65371 5.83398 3.82324 5.83398 4.00002C5.83398 4.1768 5.90419 4.34633 6.02918 4.47135L8.02918 6.47135C8.15419 6.59633 8.32373 6.66654 8.50051 6.66654C8.67728 6.66654 8.84682 6.59633 8.97184 6.47135L10.9718 4.47135C11.0968 4.34633 11.167 4.1768 11.167 4.00002C11.167 3.82324 11.0968 3.65371 10.9718 3.52869L8.97184 1.52869ZM8.02918 9.52869C8.15419 9.40371 8.32373 9.3335 8.50051 9.3335C8.67728 9.3335 8.84682 9.40371 8.97184 9.52869L10.9718 11.5287C11.0968 11.6537 11.167 11.8232 11.167 12C11.167 12.1768 11.0968 12.3463 10.9718 12.4714L8.97184 14.4714C8.84682 14.5963 8.67728 14.6665 8.50051 14.6665C8.32373 14.6665 8.15419 14.5963 8.02918 14.4714L6.02918 12.4714C5.90419 12.3463 5.83398 12.1768 5.83398 12C5.83398 11.8232 5.90419 11.6537 6.02918 11.5287L8.02918 9.52869ZM12.0292 5.52869C12.1542 5.40371 12.3237 5.3335 12.5005 5.3335C12.6773 5.3335 12.8468 5.40371 12.9718 5.52869L14.9718 7.52869C15.0968 7.65371 15.167 7.82324 15.167 8.00002C15.167 8.1768 15.0968 8.34633 14.9718 8.47135L12.9718 10.4714C12.8468 10.5963 12.6773 10.6665 12.5005 10.6665C12.3237 10.6665 12.1542 10.5963 12.0292 10.4714L10.0292 8.47135C9.90419 8.34633 9.83398 8.1768 9.83398 8.00002C9.83398 7.82324 9.90419 7.65371 10.0292 7.52869L12.0292 5.52869ZM4.02918 5.52869C4.15419 5.40371 4.32373 5.3335 4.50051 5.3335C4.67728 5.3335 4.84682 5.40371 4.97184 5.52869L6.97184 7.52869C7.09682 7.65371 7.16703 7.82324 7.16703 8.00002C7.16703 8.1768 7.09682 8.34633 6.97184 8.47135L4.97184 10.4714C4.84682 10.5963 4.67728 10.6665 4.50051 10.6665C4.32373 10.6665 4.15419 10.5963 4.02918 10.4714L2.02918 8.47135C1.90419 8.34633 1.83398 8.1768 1.83398 8.00002C1.83398 7.82324 1.90419 7.65371 2.02918 7.52869L4.02918 5.52869Z" fill="#74EB69"/>
</svg>
