<svg width="33" height="33" viewBox="0 0 33 33" fill="none" xmlns="http://www.w3.org/2000/svg">
<path d="M19.0266 11.7047L20.3156 2.11406C19.0781 1.80469 17.8406 1.03125 16.5 1.03125C15.1594 1.03125 13.9219 1.80469 12.6328 2.16562C11.3438 2.475 9.9 2.42344 8.76562 3.09375C7.63125 3.76406 6.90938 5.05313 5.98125 5.98125C5.05313 6.90938 3.76406 7.63125 3.09375 8.76562C2.42344 9.9 2.475 11.3438 2.11406 12.6328C1.80469 13.9219 1.03125 15.1594 1.03125 16.5C1.03125 17.8406 1.80469 19.0781 2.16562 20.3672C2.475 21.6562 2.42344 23.1 3.09375 24.2344C3.76406 25.3687 5.05313 26.0906 5.98125 27.0188C6.90938 27.9469 7.57969 29.2359 8.76562 29.9062C9.9 30.5766 11.3438 30.525 12.6328 30.8859C13.9219 31.1953 15.1594 31.9688 16.5 31.9688C17.8406 31.9688 19.0781 31.1953 20.3672 30.8344C21.6562 30.4734 23.1 30.525 24.2344 29.8547C25.3687 29.1844 26.0906 27.8953 27.0188 26.9672C27.9469 26.0391 29.2359 25.3688 29.9062 24.1828C30.5766 23.0484 30.525 21.6047 30.8859 20.3156C31.1953 19.0781 31.9688 17.8406 31.9688 16.5C31.9688 15.1594 30.8859 12.3234 30.8859 12.3234L19.0266 11.7047Z" fill="#DDA85F"/>
<path d="M30.6283 11.55C30.1127 11.7047 29.3908 11.6531 28.6174 11.3438C27.5346 10.9312 26.8643 10.0547 26.658 9.02344C26.1424 9.17812 24.9049 9.02344 24.0799 8.50781C22.8424 7.73438 22.5846 5.56875 22.5846 5.56875C21.1924 5.15625 20.1611 3.50625 20.3158 2.11406C19.1814 1.80469 17.7377 1.85625 16.5002 1.85625C15.2627 1.85625 14.1283 2.57812 12.9939 2.8875C11.808 3.19687 10.4674 3.14531 9.43613 3.76406C8.40488 4.38281 7.73457 5.56875 6.90957 6.39375C6.03301 7.27031 4.84707 7.88906 4.27988 8.92031C3.66113 9.95156 3.7127 11.2922 3.40332 12.4781C3.09395 13.6125 2.37207 14.7469 2.37207 15.9844C2.37207 17.2219 3.09395 18.3562 3.40332 19.4906C3.7127 20.6766 3.66113 22.0172 4.27988 23.0484C4.89863 24.0797 6.08457 24.75 6.90957 25.575C7.78613 26.4516 8.40488 27.6375 9.43613 28.2047C10.4674 28.8234 11.808 28.7719 12.9939 29.0813C14.1283 29.3906 15.2627 30.1125 16.5002 30.1125C17.7377 30.1125 18.8721 29.3906 20.0064 29.0813C21.1924 28.7719 22.533 28.8234 23.5643 28.2047C24.5955 27.5859 25.2658 26.4 26.0908 25.575C26.9674 24.6984 28.1533 24.0797 28.7205 23.0484C29.3393 22.0172 29.2877 20.6766 29.5971 19.4906C29.9064 18.3562 31.1439 17.4281 31.2986 16.1906C31.7111 14.1797 30.6799 11.9109 30.6283 11.55Z" fill="#F2CB7D"/>
<path d="M25.8327 5.56877L25.1108 6.29064L24.4405 5.56877L25.1108 4.89846L25.8327 5.56877ZM28.7718 9.17814L28.4624 9.53908L28.1015 9.17814L28.4624 8.81721L28.7718 9.17814ZM26.1937 6.80627L25.8327 7.16721L25.4718 6.80627L25.8327 6.44533L26.1937 6.80627ZM22.9968 3.66096L22.6358 4.02189L22.2749 3.66096L22.6358 3.30002L22.9968 3.66096ZM29.4937 10.4672L29.1327 10.8281L28.7718 10.4672L29.1327 10.1063L29.4937 10.4672ZM29.803 9.17814L29.4421 9.53908L29.0812 9.17814L29.4421 8.81721L29.803 9.17814Z" fill="#DDA85F"/>
<path d="M6.08502 10.6219C5.5694 11.4985 6.34283 13.0969 7.37408 13.561C8.8694 14.1797 9.74596 14.2828 10.6741 12.6844C10.9835 12.1172 11.396 10.6219 11.2413 10.261C11.035 9.74533 10.1585 8.71408 9.59127 8.71408C7.99283 8.76564 6.44596 10.0031 6.08502 10.6219Z" fill="#6D4934"/>
<path d="M6.34191 10.6219C5.98097 11.2406 6.9091 13.0969 8.1466 12.9422C9.84816 12.736 9.69347 9.22971 8.9716 9.22971C7.7341 9.22971 6.59972 10.1578 6.34191 10.6219Z" fill="#A37F6A"/>
<path d="M23.3059 20.1609C24.0278 19.9547 24.5434 18.6656 24.234 17.8922C23.77 16.7062 23.3059 16.1906 21.9653 16.5516C21.5012 16.7062 20.4184 17.2734 20.3153 17.5312C20.1606 17.9437 20.0575 18.975 20.3668 19.2844C21.2434 20.1609 22.7903 20.3156 23.3059 20.1609Z" fill="#6D4934"/>
<path d="M22.5845 18.9234C23.1516 18.7687 24.0282 17.0156 23.1001 16.9125C21.5016 16.6547 20.2641 17.4281 20.4188 18.3047C20.5735 19.1812 22.172 19.0266 22.5845 18.9234Z" fill="#A37F6A"/>
<path d="M12.8389 22.9453C12.6842 22.3266 11.5498 21.8625 10.8279 22.1719C9.79667 22.5844 9.33261 22.9453 9.69355 24.1312C9.79667 24.5437 10.3123 25.4719 10.5701 25.5234C10.931 25.6781 11.8076 25.7297 12.0654 25.4719C12.8389 24.75 12.942 23.4094 12.8389 22.9453Z" fill="#6D4934"/>
<path d="M11.9626 22.4813C11.8594 22.0172 9.69382 22.6875 9.90007 23.5125C10.3126 24.9047 10.3126 25.1109 10.7251 25.0594C11.4985 24.8531 12.0141 22.8422 11.9626 22.4813Z" fill="#A37F6A"/>
<path d="M26.348 13.1484C25.7292 13.3031 25.2652 14.4375 25.5745 15.1594C25.987 16.1906 26.9667 16.3453 28.0495 15.7781C28.9777 15.3141 29.0292 13.6641 28.7714 13.3547C27.998 12.5812 26.812 13.0453 26.348 13.1484Z" fill="#6D4934"/>
<path d="M26.0908 13.7156C25.7814 14.0766 25.5236 15.5203 26.297 15.3141C27.6892 14.9016 28.6689 13.5094 28.0501 13.3031C27.2767 13.0453 26.4517 13.3031 26.0908 13.7156Z" fill="#A37F6A"/>
<path d="M11.7256 8.30776L12.7465 7.28682L13.7675 8.30776L12.7465 9.32869L11.7256 8.30776Z" fill="#6D4934"/>
<path d="M7.58203 17.2647L8.60245 16.2437L9.62339 17.2642L8.60297 18.2851L7.58203 17.2647ZM17.8904 23.1057L18.9113 22.0847L19.9323 23.1057L18.9113 24.1266L17.8904 23.1057ZM16.5188 20.2584L17.9043 18.8729L19.2898 20.2584L17.9043 21.6439L16.5188 20.2584ZM12.7331 5.06705L14.1186 3.68156L15.5041 5.06705L14.1186 6.45253L12.7331 5.06705Z" fill="#DDA85F"/>
<path d="M21.2037 23.8977L22.2246 22.8767L23.2456 23.8977L22.2246 24.9186L21.2037 23.8977ZM25.305 18.1577L26.3259 17.1368L27.3469 18.1577L26.3259 19.1787L25.305 18.1577ZM21.5595 12.7034L22.0699 12.193L22.5804 12.7034L22.0699 13.2139L21.5595 12.7034ZM7.07764 19.7309L7.58811 19.2204L8.09857 19.7309L7.58811 20.2414L7.07764 19.7309Z" fill="#6D4934"/>
</svg>
