<svg width="16" height="16" viewBox="0 0 16 16" fill="none" xmlns="http://www.w3.org/2000/svg">
<path fill-rule="evenodd" clip-rule="evenodd" d="M2 1.99998C2 1.82317 2.07024 1.6536 2.19526 1.52858C2.32029 1.40355 2.48986 1.33331 2.66667 1.33331H10.6667C10.8435 1.33331 11.013 1.40355 11.1381 1.52858C11.2631 1.6536 11.3333 1.82317 11.3333 1.99998C11.3333 2.17679 11.2631 2.34636 11.1381 2.47138C11.013 2.59641 10.8435 2.66665 10.6667 2.66665H3.33333V10.6666C3.33333 10.8435 3.2631 11.013 3.13807 11.1381C3.01305 11.2631 2.84348 11.3333 2.66667 11.3333C2.48986 11.3333 2.32029 11.2631 2.19526 11.1381C2.07024 11.013 2 10.8435 2 10.6666V1.99998ZM4.66667 4.66665C4.66667 4.48984 4.7369 4.32027 4.86193 4.19524C4.98695 4.07022 5.15652 3.99998 5.33333 3.99998H13.3333C13.5101 3.99998 13.6797 4.07022 13.8047 4.19524C13.9298 4.32027 14 4.48984 14 4.66665V12.6666C14 13.1971 13.7893 13.7058 13.4142 14.0809C13.0391 14.4559 12.5304 14.6666 12 14.6666H6.66667C6.13623 14.6666 5.62753 14.4559 5.25245 14.0809C4.87738 13.7058 4.66667 13.1971 4.66667 12.6666V4.66665Z" fill="#121212"/>
</svg>
