<svg width="16" height="16" viewBox="0 0 16 16" fill="none" xmlns="http://www.w3.org/2000/svg">
<path d="M2.66634 3.60017C2.66634 3.0815 3.08101 2.66683 3.59968 2.66683H8.39968C8.91835 2.66683 9.33301 3.0815 9.33301 3.60017V4.00017C9.33301 4.08771 9.35026 4.1744 9.38376 4.25529C9.41726 4.33617 9.46637 4.40967 9.52827 4.47157C9.59018 4.53348 9.66367 4.58258 9.74456 4.61609C9.82544 4.64959 9.91213 4.66683 9.99968 4.66683C10.0872 4.66683 10.1739 4.64959 10.2548 4.61609C10.3357 4.58258 10.4092 4.53348 10.4711 4.47157C10.533 4.40967 10.5821 4.33617 10.6156 4.25529C10.6491 4.1744 10.6663 4.08771 10.6663 4.00017V3.60017C10.6663 2.3455 9.65435 1.3335 8.39968 1.3335H3.59968C3.30187 1.33297 3.00688 1.39124 2.73164 1.50497C2.4564 1.61869 2.20631 1.78563 1.99573 1.99622C1.78514 2.2068 1.6182 2.45688 1.50448 2.73213C1.39075 3.00737 1.33248 3.30236 1.33301 3.60017V8.40017C1.33301 9.65483 2.34501 10.6668 3.59968 10.6668H3.99968C4.17649 10.6668 4.34606 10.5966 4.47108 10.4716C4.59611 10.3465 4.66634 10.177 4.66634 10.0002C4.66634 9.82336 4.59611 9.65379 4.47108 9.52876C4.34606 9.40374 4.17649 9.3335 3.99968 9.3335H3.59968C3.08101 9.3335 2.66634 8.91883 2.66634 8.40017V3.60017Z" fill="#818181"/>
<path d="M6 7.6C6 7.17565 6.16857 6.76869 6.46863 6.46863C6.76869 6.16857 7.17565 6 7.6 6H12.4C12.8243 6 13.2313 6.16857 13.5314 6.46863C13.8314 6.76869 14 7.17565 14 7.6V12.4C14 12.8243 13.8314 13.2313 13.5314 13.5314C13.2313 13.8314 12.8243 14 12.4 14H7.6C7.17565 14 6.76869 13.8314 6.46863 13.5314C6.16857 13.2313 6 12.8243 6 12.4V7.6Z" fill="#818181"/>
</svg>
