<svg width="16" height="16" viewBox="0 0 16 16" fill="none" xmlns="http://www.w3.org/2000/svg">
<path d="M11.3334 6.66667C12.4379 6.66667 13.3334 5.77124 13.3334 4.66667C13.3334 3.5621 12.4379 2.66667 11.3334 2.66667C10.2288 2.66667 9.33337 3.5621 9.33337 4.66667C9.33337 5.77124 10.2288 6.66667 11.3334 6.66667Z" stroke="white" stroke-width="1.33333" stroke-linecap="round" stroke-linejoin="round"/>
<path d="M4.66663 13.3333C5.7712 13.3333 6.66663 12.4379 6.66663 11.3333C6.66663 10.2288 5.7712 9.33333 4.66663 9.33333C3.56206 9.33333 2.66663 10.2288 2.66663 11.3333C2.66663 12.4379 3.56206 13.3333 4.66663 13.3333Z" stroke="white" stroke-width="1.33333" stroke-linecap="round" stroke-linejoin="round"/>
<path d="M9.33329 9.33334H13.3333V12.6667C13.3333 12.8435 13.2631 13.0131 13.138 13.1381C13.013 13.2631 12.8434 13.3333 12.6666 13.3333H9.99996C9.82315 13.3333 9.65358 13.2631 9.52856 13.1381C9.40353 13.0131 9.33329 12.8435 9.33329 12.6667V9.33334ZM2.66663 2.66667H6.66663V6.00001C6.66663 6.17682 6.59639 6.34639 6.47136 6.47141C6.34634 6.59643 6.17677 6.66667 5.99996 6.66667H3.33329C3.15648 6.66667 2.98691 6.59643 2.86189 6.47141C2.73686 6.34639 2.66663 6.17682 2.66663 6.00001V2.66667Z" stroke="white" stroke-width="1.33333" stroke-linecap="round" stroke-linejoin="round"/>
</svg>
