<svg width="20" height="20" viewBox="0 0 20 20" fill="none" xmlns="http://www.w3.org/2000/svg">
<g clip-path="url(#clip0_4026_5105)">
<path fill-rule="evenodd" clip-rule="evenodd" d="M10.0002 0.833332C4.93766 0.833332 0.833496 4.9375 0.833496 10C0.833496 15.0625 4.93766 19.1667 10.0002 19.1667C15.0627 19.1667 19.1668 15.0625 19.1668 10C19.1668 4.9375 15.0627 0.833332 10.0002 0.833332ZM9.5835 5C9.36248 5 9.15052 5.0878 8.99424 5.24408C8.83796 5.40036 8.75016 5.61232 8.75016 5.83333C8.75016 6.05435 8.83796 6.26631 8.99424 6.42259C9.15052 6.57887 9.36248 6.66667 9.5835 6.66667H10.0002C10.2212 6.66667 10.4331 6.57887 10.5894 6.42259C10.7457 6.26631 10.8335 6.05435 10.8335 5.83333C10.8335 5.61232 10.7457 5.40036 10.5894 5.24408C10.4331 5.0878 10.2212 5 10.0002 5H9.5835ZM8.3335 8.33333C8.11248 8.33333 7.90052 8.42113 7.74424 8.57741C7.58796 8.73369 7.50016 8.94565 7.50016 9.16667C7.50016 9.38768 7.58796 9.59964 7.74424 9.75592C7.90052 9.9122 8.11248 10 8.3335 10H9.16683V12.5H8.3335C8.11248 12.5 7.90052 12.5878 7.74424 12.7441C7.58796 12.9004 7.50016 13.1123 7.50016 13.3333C7.50016 13.5543 7.58796 13.7663 7.74424 13.9226C7.90052 14.0789 8.11248 14.1667 8.3335 14.1667H11.6668C11.8878 14.1667 12.0998 14.0789 12.2561 13.9226C12.4124 13.7663 12.5002 13.5543 12.5002 13.3333C12.5002 13.1123 12.4124 12.9004 12.2561 12.7441C12.0998 12.5878 11.8878 12.5 11.6668 12.5H10.8335V9.16667C10.8335 8.94565 10.7457 8.73369 10.5894 8.57741C10.4331 8.42113 10.2212 8.33333 10.0002 8.33333H8.3335Z" fill="#FFAF1A"/>
</g>
<defs>
<clipPath id="clip0_4026_5105">
<rect width="20" height="20" fill="white"/>
</clipPath>
</defs>
</svg>
