<svg width="20" height="20" viewBox="0 0 20 20" fill="none" xmlns="http://www.w3.org/2000/svg">
<path fill-rule="evenodd" clip-rule="evenodd" d="M9.3975 3.98417C9.70198 3.52751 10.1145 3.1531 10.5985 2.89419C11.0824 2.63528 11.6228 2.49987 12.1717 2.5H12.3492C12.5913 2.49997 12.8304 2.55268 13.0501 2.65446C13.2697 2.75624 13.4646 2.90465 13.6211 3.08936C13.7775 3.27408 13.8919 3.49066 13.9562 3.72406C14.0205 3.95745 14.0332 4.20205 13.9933 4.44083L13.4833 7.5H15.4667C15.8365 7.49998 16.2018 7.58202 16.5361 7.74022C16.8705 7.89843 17.1655 8.12884 17.4 8.41485C17.6346 8.70087 17.8027 9.03535 17.8923 9.3942C17.9819 9.75304 17.9908 10.1273 17.9183 10.49L16.9183 15.49C16.805 16.0568 16.4988 16.5668 16.0519 16.9333C15.6049 17.2998 15.0447 17.5 14.4667 17.5H5C4.33696 17.5 3.70107 17.2366 3.23223 16.7678C2.76339 16.2989 2.5 15.663 2.5 15V8.33333C2.5 8.11232 2.5878 7.90036 2.74408 7.74408C2.90036 7.5878 3.11232 7.5 3.33333 7.5H6.60833C6.74549 7.50002 6.88054 7.46619 7.00149 7.4015C7.12243 7.33681 7.22554 7.24326 7.30167 7.12917L9.3975 3.98417ZM5.83333 9.16667H4.16667V15C4.16667 15.221 4.25446 15.433 4.41074 15.5893C4.56702 15.7455 4.77899 15.8333 5 15.8333H5.83333V9.16667Z" fill="#B3B3B3"/>
</svg>
