<svg width="116" height="40" viewBox="0 0 116 40" fill="none" xmlns="http://www.w3.org/2000/svg">
<path d="M1.2998 20.3133C1.2998 24.6011 4.93749 28.0771 9.4248 28.0771H10.3998C10.7588 28.0771 11.0498 27.7996 11.0498 27.4572V23.1071C11.0498 22.7647 10.7588 22.4872 10.3998 22.4872H5.46695C4.88815 22.4872 4.59801 21.82 5.00689 21.4293L14.4349 12.4204C14.5565 12.3042 14.6248 12.1467 14.6248 11.9825V5.86336C14.6248 5.31078 13.9241 5.03431 13.5148 5.42542L3.67956 14.8234C2.20923 16.2284 1.2998 18.1694 1.2998 20.3133Z" fill="#818181"/>
<path d="M24.6998 19.6856C24.6998 15.3978 21.0621 11.9218 16.5748 11.9218H15.5998C15.2408 11.9218 14.9498 12.1994 14.9498 12.5417V16.8918C14.9498 17.2342 15.2408 17.5118 15.5998 17.5118H20.5327C21.1115 17.5118 21.4016 18.1789 20.9927 18.5696L11.5648 27.5785C11.4431 27.6948 11.3748 27.8523 11.3748 28.0165V34.1356C11.3748 34.6882 12.0756 34.9646 12.4849 34.5735L22.32 25.1755C23.7904 23.7705 24.6998 21.8296 24.6998 19.6856Z" fill="#818181"/>
<path d="M38.81 16.03V19.72H43.79V22.33H38.81V28H35.41V13.43H44.79V16.03H38.81ZM51.9102 21.57C51.9102 21.3233 51.8768 21.0833 51.8102 20.85C51.7502 20.6167 51.6468 20.41 51.5002 20.23C51.3602 20.0433 51.1735 19.8933 50.9402 19.78C50.7068 19.6667 50.4235 19.61 50.0902 19.61C49.5035 19.61 49.0435 19.78 48.7102 20.12C48.3768 20.4533 48.1568 20.9367 48.0502 21.57H51.9102ZM48.0102 23.37C48.1102 24.2367 48.3735 24.8667 48.8002 25.26C49.2268 25.6467 49.7768 25.84 50.4502 25.84C50.8102 25.84 51.1202 25.7967 51.3802 25.71C51.6402 25.6233 51.8702 25.5267 52.0702 25.42C52.2768 25.3133 52.4635 25.2167 52.6302 25.13C52.8035 25.0433 52.9835 25 53.1702 25C53.4168 25 53.6035 25.09 53.7302 25.27L54.6302 26.38C54.3102 26.7467 53.9635 27.0467 53.5902 27.28C53.2235 27.5067 52.8435 27.6867 52.4502 27.82C52.0635 27.9467 51.6735 28.0333 51.2802 28.08C50.8935 28.1333 50.5235 28.16 50.1702 28.16C49.4435 28.16 48.7602 28.0433 48.1202 27.81C47.4868 27.57 46.9302 27.2167 46.4502 26.75C45.9768 26.2833 45.6002 25.7033 45.3202 25.01C45.0468 24.3167 44.9102 23.51 44.9102 22.59C44.9102 21.8967 45.0268 21.24 45.2602 20.62C45.5002 20 45.8402 19.4567 46.2802 18.99C46.7268 18.5233 47.2635 18.1533 47.8902 17.88C48.5235 17.6067 49.2368 17.47 50.0302 17.47C50.7168 17.47 51.3435 17.5767 51.9102 17.79C52.4835 18.0033 52.9735 18.3133 53.3802 18.72C53.7935 19.1267 54.1135 19.6267 54.3402 20.22C54.5735 20.8067 54.6902 21.4733 54.6902 22.22C54.6902 22.4533 54.6802 22.6433 54.6602 22.79C54.6402 22.9367 54.6035 23.0533 54.5502 23.14C54.4968 23.2267 54.4235 23.2867 54.3302 23.32C54.2435 23.3533 54.1302 23.37 53.9902 23.37H48.0102ZM62.6914 21.57C62.6914 21.3233 62.6581 21.0833 62.5914 20.85C62.5314 20.6167 62.4281 20.41 62.2814 20.23C62.1414 20.0433 61.9547 19.8933 61.7214 19.78C61.4881 19.6667 61.2047 19.61 60.8714 19.61C60.2847 19.61 59.8247 19.78 59.4914 20.12C59.1581 20.4533 58.9381 20.9367 58.8314 21.57H62.6914ZM58.7914 23.37C58.8914 24.2367 59.1547 24.8667 59.5814 25.26C60.0081 25.6467 60.5581 25.84 61.2314 25.84C61.5914 25.84 61.9014 25.7967 62.1614 25.71C62.4214 25.6233 62.6514 25.5267 62.8514 25.42C63.0581 25.3133 63.2447 25.2167 63.4114 25.13C63.5847 25.0433 63.7647 25 63.9514 25C64.1981 25 64.3847 25.09 64.5114 25.27L65.4114 26.38C65.0914 26.7467 64.7447 27.0467 64.3714 27.28C64.0047 27.5067 63.6247 27.6867 63.2314 27.82C62.8447 27.9467 62.4547 28.0333 62.0614 28.08C61.6747 28.1333 61.3047 28.16 60.9514 28.16C60.2247 28.16 59.5414 28.0433 58.9014 27.81C58.2681 27.57 57.7114 27.2167 57.2314 26.75C56.7581 26.2833 56.3814 25.7033 56.1014 25.01C55.8281 24.3167 55.6914 23.51 55.6914 22.59C55.6914 21.8967 55.8081 21.24 56.0414 20.62C56.2814 20 56.6214 19.4567 57.0614 18.99C57.5081 18.5233 58.0447 18.1533 58.6714 17.88C59.3047 17.6067 60.0181 17.47 60.8114 17.47C61.4981 17.47 62.1247 17.5767 62.6914 17.79C63.2647 18.0033 63.7547 18.3133 64.1614 18.72C64.5747 19.1267 64.8947 19.6267 65.1214 20.22C65.3547 20.8067 65.4714 21.4733 65.4714 22.22C65.4714 22.4533 65.4614 22.6433 65.4414 22.79C65.4214 22.9367 65.3847 23.0533 65.3314 23.14C65.2781 23.2267 65.2047 23.2867 65.1114 23.32C65.0247 23.3533 64.9114 23.37 64.7714 23.37H58.7914ZM75.2959 16.39C75.1959 16.55 75.0893 16.67 74.9759 16.75C74.8693 16.83 74.7293 16.87 74.5559 16.87C74.4026 16.87 74.2359 16.8233 74.0559 16.73C73.8826 16.63 73.6826 16.52 73.4559 16.4C73.2359 16.28 72.9826 16.1733 72.6959 16.08C72.4093 15.98 72.0826 15.93 71.7159 15.93C71.0826 15.93 70.6093 16.0667 70.2959 16.34C69.9893 16.6067 69.8359 16.97 69.8359 17.43C69.8359 17.7233 69.9293 17.9667 70.1159 18.16C70.3026 18.3533 70.5459 18.52 70.8459 18.66C71.1526 18.8 71.4993 18.93 71.8859 19.05C72.2793 19.1633 72.6793 19.2933 73.0859 19.44C73.4926 19.58 73.8893 19.7467 74.2759 19.94C74.6693 20.1333 75.0159 20.38 75.3159 20.68C75.6226 20.98 75.8693 21.3467 76.0559 21.78C76.2426 22.2067 76.3359 22.7233 76.3359 23.33C76.3359 24.0033 76.2193 24.6333 75.9859 25.22C75.7526 25.8067 75.4126 26.32 74.9659 26.76C74.5259 27.1933 73.9793 27.5367 73.3259 27.79C72.6793 28.0367 71.9426 28.16 71.1159 28.16C70.6626 28.16 70.1993 28.1133 69.7259 28.02C69.2593 27.9267 68.8059 27.7967 68.3659 27.63C67.9259 27.4567 67.5126 27.2533 67.1259 27.02C66.7393 26.7867 66.4026 26.5267 66.1159 26.24L67.1159 24.66C67.1959 24.5467 67.2993 24.4533 67.4259 24.38C67.5593 24.3 67.7026 24.26 67.8559 24.26C68.0559 24.26 68.2559 24.3233 68.4559 24.45C68.6626 24.5767 68.8926 24.7167 69.1459 24.87C69.4059 25.0233 69.7026 25.1633 70.0359 25.29C70.3693 25.4167 70.7626 25.48 71.2159 25.48C71.8293 25.48 72.3059 25.3467 72.6459 25.08C72.9859 24.8067 73.1559 24.3767 73.1559 23.79C73.1559 23.45 73.0626 23.1733 72.8759 22.96C72.6893 22.7467 72.4426 22.57 72.1359 22.43C71.8359 22.29 71.4926 22.1667 71.1059 22.06C70.7193 21.9533 70.3226 21.8367 69.9159 21.71C69.5093 21.5767 69.1126 21.4167 68.7259 21.23C68.3393 21.0367 67.9926 20.7867 67.6859 20.48C67.3859 20.1667 67.1426 19.78 66.9559 19.32C66.7693 18.8533 66.6759 18.28 66.6759 17.6C66.6759 17.0533 66.7859 16.52 67.0059 16C67.2259 15.48 67.5493 15.0167 67.9759 14.61C68.4026 14.2033 68.9259 13.88 69.5459 13.64C70.1659 13.3933 70.8759 13.27 71.6759 13.27C72.1226 13.27 72.5559 13.3067 72.9759 13.38C73.4026 13.4467 73.8059 13.55 74.1859 13.69C74.5659 13.8233 74.9193 13.9867 75.2459 14.18C75.5793 14.3667 75.8759 14.58 76.1359 14.82L75.2959 16.39ZM83.1734 23.78C82.5534 23.8067 82.0434 23.86 81.6434 23.94C81.2434 24.02 80.9268 24.12 80.6934 24.24C80.4601 24.36 80.2968 24.4967 80.2034 24.65C80.1168 24.8033 80.0734 24.97 80.0734 25.15C80.0734 25.5033 80.1701 25.7533 80.3634 25.9C80.5568 26.04 80.8401 26.11 81.2134 26.11C81.6134 26.11 81.9634 26.04 82.2634 25.9C82.5634 25.76 82.8668 25.5333 83.1734 25.22V23.78ZM77.5934 19.07C78.2201 18.5167 78.9134 18.1067 79.6734 17.84C80.4401 17.5667 81.2601 17.43 82.1334 17.43C82.7601 17.43 83.3234 17.5333 83.8234 17.74C84.3301 17.94 84.7568 18.2233 85.1034 18.59C85.4568 18.95 85.7268 19.38 85.9134 19.88C86.1001 20.38 86.1934 20.9267 86.1934 21.52V28H84.7734C84.4801 28 84.2568 27.96 84.1034 27.88C83.9568 27.8 83.8334 27.6333 83.7334 27.38L83.5134 26.81C83.2534 27.03 83.0034 27.2233 82.7634 27.39C82.5234 27.5567 82.2734 27.7 82.0134 27.82C81.7601 27.9333 81.4868 28.0167 81.1934 28.07C80.9068 28.13 80.5868 28.16 80.2334 28.16C79.7601 28.16 79.3301 28.1 78.9434 27.98C78.5568 27.8533 78.2268 27.67 77.9534 27.43C77.6868 27.19 77.4801 26.8933 77.3334 26.54C77.1868 26.18 77.1134 25.7667 77.1134 25.3C77.1134 24.9267 77.2068 24.55 77.3934 24.17C77.5801 23.7833 77.9034 23.4333 78.3634 23.12C78.8234 22.8 79.4434 22.5333 80.2234 22.32C81.0034 22.1067 81.9868 21.9867 83.1734 21.96V21.52C83.1734 20.9133 83.0468 20.4767 82.7934 20.21C82.5468 19.9367 82.1934 19.8 81.7334 19.8C81.3668 19.8 81.0668 19.84 80.8334 19.92C80.6001 20 80.3901 20.09 80.2034 20.19C80.0234 20.29 79.8468 20.38 79.6734 20.46C79.5001 20.54 79.2934 20.58 79.0534 20.58C78.8401 20.58 78.6601 20.5267 78.5134 20.42C78.3668 20.3133 78.2468 20.1867 78.1534 20.04L77.5934 19.07ZM97.6716 17.63L93.6516 28H90.8316L86.8116 17.63H89.3916C89.6116 17.63 89.7949 17.6833 89.9416 17.79C90.0949 17.89 90.1982 18.0167 90.2516 18.17L91.6916 22.82C91.8182 23.2 91.9282 23.57 92.0216 23.93C92.1216 24.29 92.2082 24.65 92.2816 25.01C92.4282 24.29 92.6316 23.56 92.8916 22.82L94.3916 18.17C94.4449 18.0167 94.5449 17.89 94.6916 17.79C94.8382 17.6833 95.0116 17.63 95.2116 17.63H97.6716ZM104.781 21.57C104.781 21.3233 104.748 21.0833 104.681 20.85C104.621 20.6167 104.518 20.41 104.371 20.23C104.231 20.0433 104.045 19.8933 103.811 19.78C103.578 19.6667 103.295 19.61 102.961 19.61C102.375 19.61 101.915 19.78 101.581 20.12C101.248 20.4533 101.028 20.9367 100.921 21.57H104.781ZM100.881 23.37C100.981 24.2367 101.245 24.8667 101.671 25.26C102.098 25.6467 102.648 25.84 103.321 25.84C103.681 25.84 103.991 25.7967 104.251 25.71C104.511 25.6233 104.741 25.5267 104.941 25.42C105.148 25.3133 105.335 25.2167 105.501 25.13C105.675 25.0433 105.855 25 106.041 25C106.288 25 106.475 25.09 106.601 25.27L107.501 26.38C107.181 26.7467 106.835 27.0467 106.461 27.28C106.095 27.5067 105.715 27.6867 105.321 27.82C104.935 27.9467 104.545 28.0333 104.151 28.08C103.765 28.1333 103.395 28.16 103.041 28.16C102.315 28.16 101.631 28.0433 100.991 27.81C100.358 27.57 99.8013 27.2167 99.3213 26.75C98.8479 26.2833 98.4713 25.7033 98.1913 25.01C97.9179 24.3167 97.7813 23.51 97.7813 22.59C97.7813 21.8967 97.8979 21.24 98.1313 20.62C98.3713 20 98.7113 19.4567 99.1513 18.99C99.5979 18.5233 100.135 18.1533 100.761 17.88C101.395 17.6067 102.108 17.47 102.901 17.47C103.588 17.47 104.215 17.5767 104.781 17.79C105.355 18.0033 105.845 18.3133 106.251 18.72C106.665 19.1267 106.985 19.6267 107.211 20.22C107.445 20.8067 107.561 21.4733 107.561 22.22C107.561 22.4533 107.551 22.6433 107.531 22.79C107.511 22.9367 107.475 23.0533 107.421 23.14C107.368 23.2267 107.295 23.2867 107.201 23.32C107.115 23.3533 107.001 23.37 106.861 23.37H100.881ZM112.013 19.23C112.333 18.67 112.699 18.23 113.112 17.91C113.533 17.59 114.013 17.43 114.553 17.43C115.019 17.43 115.399 17.54 115.693 17.76L115.493 20.04C115.459 20.1867 115.403 20.2867 115.323 20.34C115.249 20.3933 115.146 20.42 115.013 20.42C114.959 20.42 114.889 20.4167 114.803 20.41C114.716 20.4033 114.626 20.3967 114.533 20.39C114.439 20.3767 114.343 20.3667 114.243 20.36C114.149 20.3467 114.063 20.34 113.983 20.34C113.529 20.34 113.166 20.46 112.893 20.7C112.626 20.94 112.399 21.2733 112.213 21.7V28H109.113V17.63H110.953C111.106 17.63 111.233 17.6433 111.333 17.67C111.439 17.6967 111.526 17.74 111.593 17.8C111.666 17.8533 111.719 17.9267 111.753 18.02C111.793 18.1133 111.826 18.2267 111.853 18.36L112.013 19.23Z" fill="#818181"/>
</svg>
