<svg width="20" height="20" viewBox="0 0 20 20" fill="none" xmlns="http://www.w3.org/2000/svg">
<circle cx="10" cy="10" r="10" fill="#121212"/>
<path d="M4.38403 10.1569C4.38403 12.3008 6.13012 14.0388 8.28403 14.0388H8.75203C8.92435 14.0388 9.06403 13.9 9.06403 13.7288V11.5538C9.06403 11.3826 8.92435 11.2438 8.75203 11.2438H6.38426C6.10644 11.2438 5.96717 10.9102 6.16344 10.7149L10.6889 6.21045C10.7472 6.15233 10.78 6.07358 10.78 5.99147V2.93193C10.78 2.65563 10.4437 2.5174 10.2472 2.71295L5.52632 7.41196C4.82056 8.11445 4.38403 9.08493 4.38403 10.1569Z" fill="#74EB69"/>
<path d="M15.616 9.84306C15.616 7.69914 13.8699 5.96114 11.716 5.96114H11.248C11.0757 5.96114 10.936 6.09992 10.936 6.27111V8.44616C10.936 8.61735 11.0757 8.75613 11.248 8.75613H13.6158C13.8936 8.75613 14.0329 9.08971 13.8366 9.28507L9.31121 13.7895C9.25282 13.8476 9.22003 13.9264 9.22003 14.0085V17.068C9.22003 17.3443 9.5564 17.4826 9.75286 17.287L14.4738 12.588C15.1795 11.8855 15.616 10.915 15.616 9.84306Z" fill="#74EB69"/>
</svg>
