<svg width="36" height="36" viewBox="0 0 36 36" fill="none" xmlns="http://www.w3.org/2000/svg">
<path d="M5.36401 18.3531C5.36401 23.1769 9.29271 27.0874 14.139 27.0874H15.192C15.5797 27.0874 15.894 26.7751 15.894 26.39V21.4961C15.894 21.1109 15.5797 20.7987 15.192 20.7987H9.86453C9.23943 20.7987 8.92608 20.0481 9.36767 19.6086L19.5499 9.47355C19.6812 9.3428 19.755 9.1656 19.755 8.98086V2.09688C19.755 1.47522 18.9982 1.1642 18.5562 1.60419L7.93415 12.177C6.34619 13.7576 5.36401 15.9411 5.36401 18.3531Z" fill="#74EB69"/>
<path d="M30.636 17.6469C30.636 12.8231 26.7073 8.91262 21.861 8.91262H20.808C20.4203 8.91262 20.106 9.22487 20.106 9.61004V14.5039C20.106 14.8891 20.4203 15.2013 20.808 15.2013H26.1355C26.7606 15.2013 27.0739 15.9519 26.6324 16.3914L16.4502 26.5264C16.3188 26.6572 16.245 26.8344 16.245 27.0191V33.9031C16.245 34.5248 17.0018 34.8358 17.4439 34.3958L28.0659 23.823C29.6538 22.2424 30.636 20.0589 30.636 17.6469Z" fill="#74EB69"/>
</svg>
