<svg width="20" height="20" viewBox="0 0 20 20" fill="none" xmlns="http://www.w3.org/2000/svg">
<circle cx="10" cy="10" r="10" fill="#74EB69"/>
<path d="M4.38379 10.1569C4.38379 12.3008 6.12988 14.0388 8.28379 14.0388H8.75179C8.9241 14.0388 9.06379 13.9 9.06379 13.7288V11.5538C9.06379 11.3826 8.9241 11.2438 8.75179 11.2438H6.38402C6.1062 11.2438 5.96693 10.9102 6.16319 10.7149L10.6886 6.21045C10.747 6.15233 10.7798 6.07358 10.7798 5.99147V2.93193C10.7798 2.65563 10.4434 2.5174 10.247 2.71295L5.52607 7.41196C4.82031 8.11445 4.38379 9.08493 4.38379 10.1569Z" fill="#1F2027"/>
<path d="M15.6158 9.84306C15.6158 7.69914 13.8697 5.96114 11.7158 5.96114H11.2478C11.0755 5.96114 10.9358 6.09992 10.9358 6.27111V8.44616C10.9358 8.61735 11.0755 8.75613 11.2478 8.75613H13.6156C13.8934 8.75613 14.0326 9.08971 13.8364 9.28507L9.31096 13.7895C9.25258 13.8476 9.21979 13.9264 9.21979 14.0085V17.068C9.21979 17.3443 9.55615 17.4826 9.75261 17.287L14.4735 12.588C15.1793 11.8855 15.6158 10.915 15.6158 9.84306Z" fill="#1F2027"/>
</svg>
