<svg width="16" height="16" viewBox="0 0 16 16" fill="none" xmlns="http://www.w3.org/2000/svg">
<path d="M1.33301 4.00001C1.33301 2.74268 1.33301 2.11468 1.72367 1.72401C2.11434 1.33334 2.74234 1.33334 3.99967 1.33334C5.25701 1.33334 5.88501 1.33334 6.27567 1.72401C6.66634 2.11468 6.66634 2.74268 6.66634 4.00001V12C6.66634 13.2573 6.66634 13.8853 6.27567 14.276C5.88501 14.6667 5.25701 14.6667 3.99967 14.6667C2.74234 14.6667 2.11434 14.6667 1.72367 14.276C1.33301 13.8853 1.33301 13.2573 1.33301 12V4.00001ZM9.33301 4.00001C9.33301 2.74268 9.33301 2.11468 9.72367 1.72401C10.1143 1.33334 10.7423 1.33334 11.9997 1.33334C13.257 1.33334 13.885 1.33334 14.2757 1.72401C14.6663 2.11468 14.6663 2.74268 14.6663 4.00001V12C14.6663 13.2573 14.6663 13.8853 14.2757 14.276C13.885 14.6667 13.257 14.6667 11.9997 14.6667C10.7423 14.6667 10.1143 14.6667 9.72367 14.276C9.33301 13.8853 9.33301 13.2573 9.33301 12V4.00001Z" fill="#818181"/>
</svg>
