<svg width="16" height="16" viewBox="0 0 16 16" fill="none" xmlns="http://www.w3.org/2000/svg">
<g clip-path="url(#clip0_1238_704)">
<path d="M15.4286 8C15.4286 9.97018 14.6459 11.8597 13.2528 13.2528C11.8596 14.6459 9.97016 15.4286 7.99998 15.4286C6.0298 15.4286 4.14032 14.6459 2.74719 13.2528C1.35406 11.8597 0.571411 9.97018 0.571411 8M15.4286 8C15.4286 6.02982 14.6459 4.14033 13.2528 2.74721C11.8596 1.35408 9.97016 0.571428 7.99998 0.571428C6.0298 0.571428 4.14032 1.35408 2.74719 2.74721C1.35406 4.14033 0.571411 6.02982 0.571411 8M15.4286 8H0.571411" stroke="#838494" stroke-linecap="round" stroke-linejoin="round"/>
<path d="M10.8571 8C10.7168 10.7166 9.71617 13.3181 7.99997 15.4286C6.28376 13.3181 5.28316 10.7166 5.14282 8C5.28316 5.28344 6.28376 2.68189 7.99997 0.571428C9.71617 2.68189 10.7168 5.28344 10.8571 8Z" stroke="#838494" stroke-linecap="round" stroke-linejoin="round"/>
</g>
<defs>
<clipPath id="clip0_1238_704">
<rect width="16" height="16" fill="white"/>
</clipPath>
</defs>
</svg>
