<svg width="32" height="32" viewBox="0 0 32 32" fill="none" xmlns="http://www.w3.org/2000/svg">
<path d="M14.3334 17.3867C14.3334 16.6267 13.7067 16 12.9467 16C12.1867 16 11.5601 16.6267 11.5601 17.3867C11.5601 17.7544 11.7062 18.1071 11.9662 18.3672C12.2263 18.6272 12.579 18.7733 12.9467 18.7733C13.3145 18.7733 13.6672 18.6272 13.9272 18.3672C14.1873 18.1071 14.3334 17.7544 14.3334 17.3867ZM18.7867 20.5467C18.1867 21.1467 16.9067 21.36 16.0001 21.36C15.0934 21.36 13.8134 21.1467 13.2134 20.5467C13.181 20.5119 13.1417 20.4843 13.0982 20.4653C13.0546 20.4464 13.0076 20.4366 12.9601 20.4366C12.9125 20.4366 12.8655 20.4464 12.822 20.4653C12.7784 20.4843 12.7392 20.5119 12.7067 20.5467C12.672 20.5791 12.6443 20.6183 12.6254 20.6619C12.6065 20.7055 12.5967 20.7525 12.5967 20.8C12.5967 20.8475 12.6065 20.8945 12.6254 20.9381C12.6443 20.9817 12.672 21.0209 12.7067 21.0533C13.6534 22 15.4667 22.08 16.0001 22.08C16.5334 22.08 18.3467 22 19.2934 21.0533C19.3281 21.0209 19.3558 20.9817 19.3747 20.9381C19.3936 20.8945 19.4034 20.8475 19.4034 20.8C19.4034 20.7525 19.3936 20.7055 19.3747 20.6619C19.3558 20.6183 19.3281 20.5791 19.2934 20.5467C19.1601 20.4133 18.9334 20.4133 18.7867 20.5467ZM19.0534 16C18.2934 16 17.6667 16.6267 17.6667 17.3867C17.6667 18.1467 18.2934 18.7733 19.0534 18.7733C19.8134 18.7733 20.4401 18.1467 20.4401 17.3867C20.4401 16.6267 19.8267 16 19.0534 16Z" fill="#818181"/>
<path d="M15.9998 2.66666C8.63984 2.66666 2.6665 8.63999 2.6665 16C2.6665 23.36 8.63984 29.3333 15.9998 29.3333C23.3598 29.3333 29.3332 23.36 29.3332 16C29.3332 8.63999 23.3598 2.66666 15.9998 2.66666ZM23.7332 17.7733C23.7598 17.96 23.7732 18.16 23.7732 18.36C23.7732 21.3467 20.2932 23.7733 15.9998 23.7733C11.7065 23.7733 8.2265 21.3467 8.2265 18.36C8.2265 18.16 8.23984 17.96 8.2665 17.7733C7.5865 17.4667 7.11984 16.7867 7.11984 16C7.11786 15.6176 7.22891 15.2432 7.43903 14.9238C7.64915 14.6044 7.94897 14.3542 8.30085 14.2046C8.65272 14.055 9.04094 14.0127 9.41676 14.0831C9.79258 14.1534 10.1392 14.3333 10.4132 14.6C11.7598 13.6267 13.6265 13.0133 15.6932 12.9467L16.6798 8.29332C16.6932 8.19999 16.7465 8.11999 16.8265 8.07999C16.9065 8.02666 16.9998 8.01332 17.0932 8.02666L20.3198 8.71999C20.4293 8.4981 20.5961 8.30952 20.803 8.17383C21.0098 8.03813 21.2493 7.96026 21.4964 7.94829C21.7435 7.93631 21.9893 7.99068 22.2084 8.10574C22.4274 8.2208 22.6116 8.39236 22.742 8.60264C22.8724 8.81291 22.9441 9.05424 22.9498 9.30159C22.9555 9.54894 22.8948 9.7933 22.7742 10.0093C22.6536 10.2253 22.4774 10.4052 22.2639 10.5301C22.0503 10.6551 21.8072 10.7206 21.5598 10.72C20.8132 10.72 20.2132 10.1333 20.1732 9.39999L17.2798 8.78666L16.3998 12.9467C18.4398 13.0133 20.2665 13.64 21.5998 14.6C21.8042 14.4048 22.0488 14.2566 22.3165 14.1659C22.5841 14.0751 22.8683 14.0439 23.1493 14.0744C23.4303 14.105 23.7012 14.1965 23.9431 14.3427C24.1849 14.4889 24.392 14.6861 24.5496 14.9207C24.7073 15.1552 24.8118 15.4214 24.8559 15.7006C24.9 15.9797 24.8825 16.2652 24.8047 16.5369C24.727 16.8086 24.5908 17.06 24.4057 17.2736C24.2206 17.4872 23.9911 17.6577 23.7332 17.7733Z" fill="#818181"/>
</svg>
