<svg width="20" height="20" viewBox="0 0 20 20" fill="none" xmlns="http://www.w3.org/2000/svg">
<path d="M10 11.6666C10.9205 11.6666 11.6667 10.9204 11.6667 9.99992C11.6667 9.07944 10.9205 8.33325 10 8.33325C9.07957 8.33325 8.33337 9.07944 8.33337 9.99992C8.33337 10.9204 9.07957 11.6666 10 11.6666Z" stroke="#818181" stroke-width="1.66667"/>
<path d="M4.4992 4.90002L4.91587 4.17752C4.75228 4.08294 4.5614 4.04677 4.37455 4.07493C4.1877 4.1031 4.01597 4.19393 3.88753 4.33252L4.4992 4.90002ZM2.83337 7.78669L2.0367 7.54086C1.98125 7.72121 1.98864 7.91504 2.05767 8.09064C2.1267 8.26624 2.25328 8.41321 2.4167 8.50752L2.83337 7.78669ZM2.8317 12.2125L2.41503 11.4909C2.25141 11.5854 2.12477 11.7327 2.05587 11.9086C1.98698 12.0846 1.97992 12.2787 2.03587 12.4592L2.8317 12.2125ZM4.49837 15.0992L3.8867 15.6659C4.01514 15.8045 4.18687 15.8953 4.37372 15.9235C4.56057 15.9516 4.75145 15.9154 4.91503 15.8209L4.49837 15.0992ZM8.3317 17.3117H7.50003C7.50004 17.5005 7.5642 17.6838 7.68199 17.8314C7.79978 17.979 7.96422 18.0823 8.14837 18.1242L8.3317 17.3117ZM11.6659 17.3134L11.8517 18.1259C12.0357 18.0838 12.1999 17.9805 12.3176 17.8329C12.4352 17.6853 12.4992 17.5021 12.4992 17.3134H11.6659ZM15.5 15.1L15.0834 15.8217C15.2469 15.9161 15.4376 15.9521 15.6242 15.924C15.8109 15.8958 15.9825 15.8051 16.1109 15.6667L15.5 15.1ZM17.165 12.2117L17.9617 12.4575C18.0172 12.2772 18.0098 12.0833 17.9407 11.9077C17.8717 11.7321 17.7451 11.5852 17.5817 11.4909L17.165 12.2117ZM17.1667 7.78586L17.5834 8.50752C17.747 8.41302 17.8736 8.26571 17.9425 8.08976C18.0114 7.91381 18.0185 7.71967 17.9625 7.53919L17.1667 7.78586ZM15.5 4.89836L16.1117 4.33252C15.9834 4.19379 15.8117 4.1028 15.6248 4.07449C15.438 4.04617 15.247 4.08221 15.0834 4.17669L15.5 4.89836ZM11.6667 2.68752H12.5C12.5001 2.49878 12.436 2.31562 12.3184 2.16802C12.2008 2.02041 12.0365 1.91711 11.8525 1.87502L11.6667 2.68752ZM8.33337 2.68586L8.14753 1.87336C7.96355 1.91545 7.79929 2.01875 7.68166 2.16635C7.56404 2.31395 7.5 2.49712 7.50003 2.68586H8.33337ZM3.63003 8.03252C3.9246 7.07679 4.43043 6.19957 5.11003 5.46586L3.88753 4.33252C3.03802 5.24967 2.40574 6.34702 2.03753 7.54169L3.63003 8.03252ZM4.2267 13.3334C3.97675 12.9016 3.77605 12.4432 3.62837 11.9667L2.0367 12.46C2.21753 13.0442 2.46587 13.6167 2.78337 14.1667L4.2267 13.3334ZM5.11003 14.5342C4.77191 14.1682 4.47506 13.7654 4.2267 13.3334L2.78337 14.1667C3.10003 14.7167 3.47253 15.2175 3.88753 15.6667L5.11003 14.5342ZM11.4817 16.5017C10.5063 16.7235 9.49351 16.7229 8.51837 16.5L8.14753 18.125C9.36676 18.4036 10.6331 18.4042 11.8525 18.1267L11.4817 16.5017ZM16.37 11.9675C16.0755 12.9233 15.5696 13.8005 14.89 14.5342L16.1125 15.6675C16.962 14.7504 17.5943 13.6539 17.9625 12.4592L16.37 11.9675ZM15.7734 6.66669C16.0284 7.10836 16.2275 7.56669 16.3717 8.03336L17.9634 7.54002C17.779 6.94502 17.5286 6.37255 17.2167 5.83336L15.7734 6.66669ZM14.89 5.46586C15.2209 5.82419 15.5184 6.22419 15.7734 6.66669L17.2167 5.83336C16.9059 5.29367 16.5355 4.79053 16.1125 4.33336L14.89 5.46586ZM8.51837 3.49836C9.49376 3.27659 10.5066 3.27716 11.4817 3.50002L11.8525 1.87502C10.6336 1.59658 9.36674 1.59601 8.14753 1.87336L8.51837 3.49836ZM9.1667 4.22669V2.68502H7.50003V4.22669H9.1667ZM6.25003 4.94836L4.91587 4.17752L4.08253 5.62086L5.4167 6.39169L6.25003 4.94836ZM3.75003 10.7217L2.41587 11.4917L3.2492 12.935L4.58337 12.165L3.75003 10.7217ZM4.58337 7.83502L3.25003 7.06586L2.4167 8.50919L3.75003 9.27836L4.58337 7.83502ZM9.1667 17.3125V15.7734H7.50003V17.3117L9.1667 17.3125ZM5.4167 13.6084L4.08253 14.3792L4.91587 15.8225L6.2492 15.0517L5.4167 13.6084ZM15.9175 14.3792L14.5834 13.6084L13.75 15.0517L15.0842 15.8225L15.9175 14.3792ZM12.5 17.3142V15.7734H10.8334V17.315L12.5 17.3142ZM16.7509 7.06419L15.4167 7.83502L16.25 9.27836L17.5834 8.50752L16.7509 7.06419ZM17.5825 11.4909L16.25 10.7217L15.4167 12.165L16.75 12.9342L17.5825 11.4909ZM12.5 4.22669V2.68752H10.8334V4.22669H12.5ZM15.0842 4.17752L13.75 4.94836L14.5834 6.39169L15.9175 5.62086L15.0842 4.17752ZM10.8334 4.22669C10.8334 6.15169 12.9167 7.35419 14.5834 6.39169L13.75 4.94836C13.6234 5.0215 13.4797 5.06 13.3334 5.06C13.1871 5.06 13.0434 5.0215 12.9167 4.94836C12.79 4.87523 12.6848 4.77003 12.6117 4.64335C12.5385 4.51667 12.5 4.37297 12.5 4.22669H10.8334ZM15.4167 7.83502C13.75 8.79752 13.75 11.2025 15.4167 12.165L16.25 10.7217C16.1234 10.6485 16.0182 10.5434 15.945 10.4167C15.8719 10.29 15.8334 10.1463 15.8334 10C15.8334 9.85375 15.8719 9.71005 15.945 9.58338C16.0182 9.4567 16.1234 9.3515 16.25 9.27836L15.4167 7.83502ZM14.5834 13.6084C12.9167 12.6467 10.8334 13.8492 10.8334 15.7734H12.5C12.5 15.6271 12.5385 15.4834 12.6117 15.3567C12.6848 15.23 12.79 15.1248 12.9167 15.0517C13.0434 14.9785 13.1871 14.94 13.3334 14.94C13.4797 14.94 13.6234 14.9786 13.75 15.0517L14.5834 13.6084ZM9.1667 15.7734C9.1667 13.8484 7.08337 12.6459 5.4167 13.6084L6.2492 15.0517C6.37588 14.9786 6.52042 14.94 6.66669 14.94C6.81297 14.94 6.95667 14.9785 7.08336 15.0517C7.21004 15.1248 7.31524 15.23 7.38838 15.3567C7.46152 15.4834 7.50003 15.6271 7.50003 15.7734H9.1667ZM4.58337 12.165C6.25003 11.2025 6.25003 8.79752 4.58337 7.83502L3.75003 9.27836C3.87671 9.3515 3.98189 9.4567 4.05503 9.58338C4.12816 9.71005 4.16666 9.85375 4.16666 10C4.16666 10.1463 4.12816 10.29 4.05503 10.4167C3.98189 10.5434 3.87671 10.6485 3.75003 10.7217L4.58337 12.165ZM7.50003 4.22669C7.50003 4.37297 7.46152 4.51667 7.38838 4.64335C7.31524 4.77003 7.21004 4.87523 7.08336 4.94836C6.95667 5.0215 6.81297 5.06 6.66669 5.06C6.52042 5.06 6.37671 5.0215 6.25003 4.94836L5.4167 6.39169C7.08337 7.35336 9.1667 6.15086 9.1667 4.22669H7.50003Z" fill="#818181"/>
</svg>
