<svg width="20" height="20" viewBox="0 0 20 20" fill="none" xmlns="http://www.w3.org/2000/svg">
<path fill-rule="evenodd" clip-rule="evenodd" d="M2.98073 1.83809C3.04421 1.76836 3.1253 1.71701 3.21548 1.68944C3.30567 1.66187 3.40161 1.6591 3.49323 1.68142L14.5149 4.37976C14.5816 4.39531 14.6424 4.42365 14.6974 4.46476L16.9399 6.10059C17.0488 6.18101 17.1224 6.30036 17.1453 6.43373C17.1683 6.56711 17.1389 6.70421 17.0632 6.81642L9.34823 18.1048C9.29414 18.185 9.21876 18.2486 9.13054 18.2884C9.04232 18.3283 8.94475 18.3427 8.84878 18.3302C8.7528 18.3176 8.66223 18.2786 8.58721 18.2174C8.51219 18.1562 8.45569 18.0754 8.42406 17.9839L2.87656 2.36392C2.84525 2.27512 2.83839 2.17952 2.85672 2.08715C2.87505 1.99478 2.91788 1.90821 2.98073 1.83809ZM4.7999 4.65809L8.65156 15.5023L9.2849 9.88309L4.7999 4.65809ZM10.3166 10.0639L9.67323 15.7806L15.1207 7.80892L10.3166 10.0639ZM15.6124 6.42476L12.0999 8.07142L14.4532 5.57976L15.6124 6.42476ZM13.3941 5.18142L4.8249 3.08309L9.84906 8.93309L13.3941 5.18142Z" fill="#C4342B"/>
</svg>
