<svg width="69" height="20" viewBox="0 0 69 20" fill="none" xmlns="http://www.w3.org/2000/svg">
<g clip-path="url(#clip0_2317_1816)">
<mask id="mask0_2317_1816" style="mask-type:luminance" maskUnits="userSpaceOnUse" x="0" y="0" width="69" height="20">
<path d="M69 0.71521H0V19.1952H69V0.71521Z" fill="white"/>
</mask>
<g mask="url(#mask0_2317_1816)">
<path d="M30.8975 5.08478H34.1436V6.90935C35.2072 5.26956 36.4312 5.08478 38.2227 5.08478V8.30919H37.4069C35.2599 8.30919 34.2321 9.32297 34.2321 11.3312V14.7586H30.8975V5.08478Z" fill="#48FF91"/>
<path d="M49.0539 14.7586H45.72V13.8364C44.9918 14.6841 43.9997 15.0526 42.7763 15.0526C40.4532 15.0526 39.1396 13.6703 39.1396 11.1282V5.08478H42.4738V10.3737C42.4738 11.5706 43.059 12.2705 44.0518 12.2705C45.0445 12.2705 45.7193 11.5882 45.7193 10.4283V5.08478H49.0535V14.7586H49.0539Z" fill="#48FF91"/>
<path d="M49.8687 11.772H52.9912C53.1335 12.4719 53.6124 12.7664 54.7642 12.7664C55.7049 12.7664 56.2545 12.5458 56.2545 12.1404C56.2545 11.8266 55.9882 11.6236 55.2267 11.4581L52.7079 10.8867C51.0227 10.5006 50.1712 9.5238 50.1712 7.9568C50.1712 5.89228 51.6783 4.82391 54.6051 4.82391C57.5317 4.82391 58.968 5.865 59.2173 8.09553H56.114C56.0612 7.50648 55.4573 7.14599 54.4645 7.14599C53.6666 7.14599 53.1534 7.40357 53.1534 7.79134C53.1534 8.12281 53.4894 8.38039 54.1649 8.54755L56.8071 9.19289C58.5448 9.61591 59.3795 10.5012 59.3795 11.938C59.3795 13.9286 57.6586 15.1078 54.7337 15.1078C51.8086 15.1078 49.8737 13.8365 49.8737 11.772H49.8702H49.8687Z" fill="#48FF91"/>
<path d="M68.2581 8.0937V5.08478H60.0283V8.09541H62.4842V14.7586H65.8013V8.0937H68.2581Z" fill="#48FF91"/>
<path d="M29.969 8.0937V5.08478H21.7397V8.09541H24.1956V14.7586H27.5132V8.0937H29.969Z" fill="#48FF91"/>
<path d="M0.152832 3.3847L8.33783 0.71521V19.1952C2.49132 16.731 0.152832 12.0083 0.152832 9.33944V3.3847Z" fill="#48FF91"/>
<path d="M16.5234 3.3847L8.33838 0.71521V19.1952C14.1849 16.731 16.5234 12.0083 16.5234 9.33944V3.3847Z" fill="url(#paint0_linear_2317_1816)"/>
</g>
</g>
<defs>
<linearGradient id="paint0_linear_2317_1816" x1="7.99273" y1="21.5178" x2="14.7355" y2="-2.78558" gradientUnits="userSpaceOnUse">
<stop offset="0.26" stop-color="#48FF91"/>
<stop offset="0.66" stop-color="#0094FF"/>
<stop offset="0.8" stop-color="#0038FF"/>
<stop offset="0.89" stop-color="#0500FF"/>
</linearGradient>
<clipPath id="clip0_2317_1816">
<rect width="69" height="20" fill="white"/>
</clipPath>
</defs>
</svg>
