<svg width="20" height="20" viewBox="0 0 20 20" fill="none" xmlns="http://www.w3.org/2000/svg">
<circle cx="10" cy="10" r="10" fill="white"/>
<path fill-rule="evenodd" clip-rule="evenodd" d="M10 4.66667C9.06722 4.6665 8.15066 4.91099 7.34186 5.37575C6.53305 5.84051 5.86029 6.50928 5.39073 7.31531C4.92116 8.12133 4.67121 9.03641 4.66583 9.96923C4.66044 10.902 4.89981 11.8199 5.36005 12.6313C5.67112 12.2271 6.071 11.8997 6.52877 11.6747C6.98654 11.4496 7.48994 11.3328 8.00005 11.3333H12C12.5102 11.3328 13.0136 11.4496 13.4713 11.6747C13.9291 11.8997 14.329 12.2271 14.64 12.6313C15.1003 11.8199 15.3397 10.902 15.3343 9.96923C15.3289 9.03641 15.0789 8.12133 14.6094 7.31531C14.1398 6.50928 13.467 5.84051 12.6582 5.37575C11.8494 4.91099 10.9329 4.6665 10 4.66667ZM15.2954 14.0507C15.3789 13.9418 15.4589 13.8302 15.5354 13.716C16.2745 12.6178 16.6684 11.3237 16.6667 10C16.6667 6.318 13.682 3.33334 10 3.33334C6.31805 3.33334 3.33338 6.318 3.33338 10C3.33128 11.4645 3.81341 12.8886 4.70471 14.0507L4.70138 14.0627L4.93805 14.338C5.5633 15.069 6.33964 15.6557 7.21354 16.0578C8.08743 16.4598 9.03811 16.6675 10 16.6667C10.144 16.6667 10.2872 16.6622 10.4294 16.6533C11.6323 16.5775 12.7918 16.1753 13.7834 15.49C14.2576 15.1629 14.6874 14.7756 15.062 14.338L15.2987 14.0627L15.2954 14.0507ZM10 6C9.46961 6 8.96091 6.21072 8.58583 6.58579C8.21076 6.96086 8.00005 7.46957 8.00005 8C8.00005 8.53044 8.21076 9.03914 8.58583 9.41422C8.96091 9.78929 9.46961 10 10 10C10.5305 10 11.0392 9.78929 11.4143 9.41422C11.7893 9.03914 12 8.53044 12 8C12 7.46957 11.7893 6.96086 11.4143 6.58579C11.0392 6.21072 10.5305 6 10 6Z" fill="#0B0B0B"/>
</svg>
