<svg width="32" height="32" viewBox="0 0 32 32" fill="none" xmlns="http://www.w3.org/2000/svg">
<path d="M15.9999 2.66666C8.63596 2.66666 2.6665 8.63611 2.6665 16C2.6665 23.3639 8.63596 29.3334 15.9999 29.3334C23.3637 29.3334 29.3332 23.3639 29.3332 16C29.3332 8.63611 23.3637 2.66666 15.9999 2.66666ZM21.1276 17.7097C21.1276 17.7097 22.3068 18.8736 22.5971 19.4139C22.6054 19.4259 22.6105 19.4352 22.6124 19.4417C22.73 19.6389 22.7591 19.7949 22.6999 19.9097C22.6026 20.1014 22.2693 20.1958 22.1554 20.2042H20.0721C19.9276 20.2042 19.6249 20.1667 19.2582 19.9139C18.9762 19.7167 18.6985 19.3931 18.4276 19.0778C18.0235 18.6083 17.6735 18.2028 17.3207 18.2028C17.2759 18.2026 17.2313 18.2096 17.1887 18.2236C16.9221 18.3097 16.5804 18.6903 16.5804 19.7042C16.5804 20.0208 16.3304 20.2028 16.154 20.2028H15.1999C14.8749 20.2028 13.1818 20.0889 11.6818 18.507C9.84568 16.5695 8.1929 12.6833 8.17901 12.6472C8.07484 12.3958 8.29012 12.2611 8.52484 12.2611H10.629C10.9096 12.2611 11.0012 12.4319 11.0651 12.5833C11.1401 12.7597 11.4151 13.4611 11.8665 14.25C12.5985 15.5361 13.0471 16.0583 13.4068 16.0583C13.4742 16.0575 13.5405 16.0404 13.5998 16.0083C14.0693 15.7472 13.9818 14.0736 13.961 13.7264C13.961 13.6611 13.9596 12.9778 13.7193 12.65C13.5471 12.4125 13.254 12.3222 13.0762 12.2889C13.1482 12.1896 13.243 12.1091 13.3526 12.0542C13.6748 11.8931 14.2554 11.8694 14.8318 11.8694H15.1526C15.7776 11.8778 15.9387 11.9181 16.1651 11.975C16.6235 12.0847 16.6332 12.3806 16.5929 13.3931C16.5804 13.6806 16.5679 14.0056 16.5679 14.3889L16.5637 14.6556C16.5499 15.1708 16.5332 15.7556 16.8971 15.9958C16.944 16.0268 16.9992 16.0428 17.0554 16.0417C17.1818 16.0417 17.5624 16.0417 18.5929 14.2736C18.9095 13.7039 19.1857 13.1126 19.4193 12.5042C19.4401 12.4681 19.5012 12.3569 19.5735 12.3139C19.6273 12.2883 19.6861 12.2746 19.7457 12.2736H22.2193C22.4887 12.2736 22.6735 12.3139 22.7082 12.4181C22.7693 12.5833 22.6971 13.0875 21.5679 14.6167L21.0637 15.2819C20.0401 16.6236 20.0401 16.6917 21.1276 17.7097Z" fill="#818181"/>
</svg>
