<svg width="16" height="16" viewBox="0 0 16 16" fill="none" xmlns="http://www.w3.org/2000/svg">
<path fill-rule="evenodd" clip-rule="evenodd" d="M6.26577 2.02326C5.06311 2.37359 3.99396 3.07827 3.19781 4.04536C2.40166 5.01244 1.91546 6.19704 1.80266 7.44459H4.6471C4.81291 5.54615 5.36334 3.7013 6.26488 2.02237L6.26577 2.02326ZM4.6471 8.5557H1.80266C1.91523 9.80331 2.40121 10.988 3.19721 11.9553C3.99321 12.9225 5.06226 13.6274 6.26488 13.9779C5.36334 12.299 4.81291 10.4542 4.6471 8.5557ZM7.69066 14.2153C6.61295 12.506 5.95221 10.5673 5.76177 8.5557H10.2373C10.0469 10.5673 9.38614 12.506 8.30844 14.2153C8.10264 14.2255 7.89646 14.2255 7.69066 14.2153ZM9.7351 13.977C10.9376 13.6266 12.0066 12.9218 12.8025 11.9547C13.5985 10.9877 14.0846 9.80315 14.1973 8.5557H11.3529C11.1871 10.4542 10.6366 12.299 9.7351 13.9779V13.977ZM11.3529 7.44459H14.1973C14.0848 6.19699 13.5988 5.01228 12.8028 4.04504C12.0068 3.07779 10.9377 2.37291 9.7351 2.02237C10.6366 3.7013 11.1871 5.54615 11.3529 7.44459ZM7.69066 1.78504C7.89675 1.77478 8.10323 1.77478 8.30933 1.78504C9.38672 3.49436 10.0472 5.43303 10.2373 7.44459H5.76266C5.95555 5.42059 6.61777 3.48015 7.69066 1.78504Z" fill="#B3B3B3"/>
</svg>
