<svg width="40" height="40" viewBox="0 0 40 40" fill="none" xmlns="http://www.w3.org/2000/svg">
<path fill-rule="evenodd" clip-rule="evenodd" d="M20.0003 7.69229C21.3157 7.69229 22.665 7.72614 23.9726 7.78152L25.5173 7.85537L26.9957 7.94306L28.3803 8.03691L29.645 8.13537C31.0175 8.23982 32.3093 8.82527 33.2926 9.7886C34.2759 10.7519 34.8877 12.0314 35.0203 13.4015L35.0819 14.0554L35.1973 15.4554C35.305 16.9061 35.385 18.4877 35.385 20C35.385 21.5123 35.305 23.0938 35.1973 24.5446L35.0819 25.9446L35.0203 26.5984C34.8877 27.9688 34.2756 29.2485 33.292 30.2118C32.3084 31.1752 31.0163 31.7605 29.6434 31.8646L28.3819 31.9615L26.9973 32.0569L25.5173 32.1446L23.9726 32.2184C22.6493 32.2758 21.3249 32.3055 20.0003 32.3077C18.6758 32.3055 17.3514 32.2758 16.028 32.2184L14.4834 32.1446L13.005 32.0569L11.6203 31.9615L10.3557 31.8646C8.98313 31.7602 7.69141 31.1747 6.7081 30.2114C5.72478 29.248 5.11294 27.9686 4.98034 26.5984L4.9188 25.9446L4.80341 24.5446C4.68623 23.0325 4.62363 21.5166 4.61572 20C4.61572 18.4877 4.69572 16.9061 4.80341 15.4554L4.9188 14.0554L4.98034 13.4015C5.11289 12.0316 5.72451 10.7524 6.70751 9.78907C7.69051 8.82577 8.98186 8.24016 10.3542 8.13537L11.6173 8.03691L13.0019 7.94306L14.4819 7.85537L16.0265 7.78152C17.3503 7.72418 18.6752 7.69443 20.0003 7.69229ZM16.9234 16.2692V23.7308C16.9234 24.4415 17.6926 24.8846 18.308 24.5308L24.7696 20.8C24.9102 20.719 25.027 20.6025 25.1082 20.462C25.1894 20.3216 25.2321 20.1622 25.2321 20C25.2321 19.8377 25.1894 19.6784 25.1082 19.5379C25.027 19.3975 24.9102 19.2809 24.7696 19.2L18.308 15.4708C18.1677 15.3897 18.0084 15.3471 17.8463 15.3471C17.6843 15.3471 17.525 15.3898 17.3847 15.4709C17.2444 15.552 17.1278 15.6686 17.0469 15.809C16.9659 15.9494 16.9233 16.1087 16.9234 16.2708V16.2692Z" fill="#818181"/>
</svg>
