<svg width="159" height="95" viewBox="0 0 159 95" fill="none" xmlns="http://www.w3.org/2000/svg">
<path fill-rule="evenodd" clip-rule="evenodd" d="M98.46 36.34C96.5229 32.8183 93.1311 29.5047 88.284 26.712C72.1366 17.4079 45.9569 17.4079 29.8096 26.712C24.9624 29.5047 21.5706 32.8183 19.633 36.34H17.6953V43.2358H17.7027C17.5578 49.4398 21.5933 55.6706 29.8096 60.4044C45.9569 69.7086 72.1366 69.7086 88.284 60.4044C96.4997 55.6706 100.536 49.4398 100.391 43.2358H100.421V36.34H98.46Z" fill="#74EB69"/>
<path d="M88.2837 26.712L88.5404 26.2678L88.2837 26.712ZM98.4597 36.34L98.0099 36.5871L98.156 36.8524H98.4597V36.34ZM29.8094 26.712L29.5526 26.2678L29.8094 26.712ZM19.6327 36.34V36.8524H19.9371L20.0832 36.5871L19.6327 36.34ZM17.6951 36.34V35.8282H17.1816V36.34H17.6951ZM17.6951 43.2358H17.1816V43.7476H17.6951V43.2358ZM17.7024 43.2358L18.2158 43.2474L18.2281 42.7234H17.7024V43.2358ZM29.8094 60.4044L29.5526 60.8485L29.8094 60.4044ZM88.2837 60.4044L88.5404 60.8485L88.2837 60.4044ZM100.391 43.2358V42.7234H99.865L99.8772 43.2474L100.391 43.2358ZM100.421 43.2358V43.7476H100.935V43.2358H100.421ZM100.421 36.34H100.935V35.8282H100.421V36.34ZM88.027 27.1554C92.8143 29.914 96.1285 33.1667 98.0099 36.5871L98.9102 36.0936C96.9169 32.47 93.4469 29.0953 88.5404 26.2678L88.027 27.1554ZM30.0661 27.1554C38.0435 22.5589 48.5306 20.2463 59.0465 20.2463C69.5624 20.2463 80.0496 22.5589 88.027 27.1554L88.5404 26.2678C80.3705 21.5603 69.6945 19.2214 59.0465 19.2214C48.3986 19.2214 37.7226 21.5603 29.5526 26.2678L30.0661 27.1554ZM20.0832 36.5871C21.964 33.1667 25.2782 29.914 30.0661 27.1554L29.5526 26.2678C24.6462 29.0953 21.1761 32.47 19.1829 36.0936L20.0832 36.5871ZM17.6951 36.8524H19.6327V35.8282H17.6951V36.8524ZM18.2085 43.2358V36.34H17.1816V43.2358H18.2085ZM17.7024 42.7234H17.6951V43.7476H17.7024V42.7234ZM30.0661 59.9609C21.9451 55.2814 18.0771 49.1976 18.2158 43.2474L17.1896 43.2236C17.0386 49.6819 21.2415 56.0592 29.5526 60.8485L30.0661 59.9609ZM88.027 59.9609C80.0496 64.5575 69.5618 66.8701 59.0465 66.8701C48.5313 66.8701 38.0435 64.5575 30.0661 59.9609L29.5526 60.8485C37.7226 65.5561 48.3986 67.8949 59.0465 67.8949C69.6945 67.8949 80.3705 65.5561 88.5404 60.8485L88.027 59.9609ZM99.8772 43.2474C100.016 49.1976 96.148 55.2814 88.027 59.9609L88.5404 60.8485C96.8516 56.0592 101.055 49.6819 100.904 43.2236L99.8772 43.2474ZM100.421 42.7234H100.391V43.7476H100.421V42.7234ZM99.9078 36.34V43.2358H100.935V36.34H99.9078ZM98.4597 36.8524H100.421V35.8282H98.4597V36.8524Z" fill="#060606"/>
<mask id="mask0_4897_8246" style="mask-type:alpha" maskUnits="userSpaceOnUse" x="17" y="17" width="84" height="50">
<path fill-rule="evenodd" clip-rule="evenodd" d="M98.46 34.9925C96.5229 31.4709 93.1311 28.1572 88.284 25.3645C72.1366 16.0603 45.9569 16.0603 29.8096 25.3645C24.9624 28.1572 21.5706 31.4709 19.633 34.9925H17.6953V41.8883H17.7027C17.5578 48.0923 21.5933 54.3231 29.8096 59.0569C45.9569 68.3611 72.1366 68.3611 88.284 59.0569C96.4997 54.3231 100.536 48.0923 100.391 41.8883H100.421V34.9925H98.46Z" fill="#71A407"/>
<path d="M98.4597 34.9926L98.0099 35.2397L98.156 35.5051H98.4597V34.9926ZM19.6327 34.9926V35.5051H19.9371L20.0832 35.2397L19.6327 34.9926ZM17.6951 34.9926V34.4808H17.1816V34.9926H17.6951ZM17.6951 41.8884H17.1816V42.4008H17.6951V41.8884ZM17.7024 41.8884L18.2158 41.9L18.2281 41.376H17.7024V41.8884ZM100.391 41.8884V41.376H99.865L99.8772 41.9L100.391 41.8884ZM100.421 41.8884V42.4008H100.935V41.8884H100.421ZM100.421 34.9926H100.935V34.4808H100.421V34.9926ZM88.027 25.8081C92.8143 28.5666 96.1285 31.8193 98.0099 35.2397L98.9102 34.7462C96.9169 31.1226 93.4469 27.7479 88.5404 24.9205L88.027 25.8081ZM30.0661 25.8081C38.0435 21.2115 48.5306 18.8989 59.0465 18.8989C69.5624 18.8989 80.0496 21.2115 88.027 25.8081L88.5404 24.9205C80.3705 20.2129 69.6945 17.874 59.0465 17.874C48.3986 17.874 37.7226 20.2129 29.5526 24.9205L30.0661 25.8081ZM20.0832 35.2397C21.964 31.8193 25.2782 28.5666 30.0661 25.8081L29.5526 24.9205C24.6462 27.7479 21.1761 31.1226 19.1829 34.7462L20.0832 35.2397ZM17.6951 35.5051H19.6327V34.4808H17.6951V35.5051ZM18.2085 41.8884V34.9926H17.1816V41.8884H18.2085ZM17.7024 41.376H17.6951V42.4008H17.7024V41.376ZM30.0661 58.6135C21.9451 53.934 18.0771 47.8502 18.2158 41.9L17.1896 41.8762C17.0386 48.3345 21.2415 54.7118 29.5526 59.5011L30.0661 58.6135ZM88.027 58.6135C80.0496 63.2101 69.5618 65.5227 59.0465 65.5227C48.5313 65.5227 38.0435 63.2101 30.0661 58.6135L29.5526 59.5011C37.7226 64.2087 48.3986 66.5475 59.0465 66.5475C69.6945 66.5475 80.3705 64.2087 88.5404 59.5011L88.027 58.6135ZM99.8772 41.9C100.016 47.8502 96.148 53.934 88.027 58.6135L88.5404 59.5011C96.8516 54.7118 101.055 48.3345 100.904 41.8762L99.8772 41.9ZM100.421 41.376H100.391V42.4008H100.421V41.376ZM99.9078 34.9926V41.8884H100.935V34.9926H99.9078ZM98.4597 35.5051H100.421V34.4808H98.4597V35.5051Z" fill="#060606"/>
</mask>
<g mask="url(#mask0_4897_8246)">
<path d="M59.0625 34.9902H17.6988V68.6827H59.0625V34.9902Z" fill="#74EB69"/>
</g>
<path d="M88.2837 26.712L88.5404 26.2678L88.2837 26.712ZM98.4597 36.34L98.0099 36.5871L98.156 36.8524H98.4597V36.34ZM29.8094 26.712L29.5526 26.2678L29.8094 26.712ZM19.6327 36.34V36.8524H19.9371L20.0832 36.5871L19.6327 36.34ZM17.6951 36.34V35.8282H17.1816V36.34H17.6951ZM17.6951 43.2358H17.1816V43.7476H17.6951V43.2358ZM17.7024 43.2358L18.2158 43.2474L18.2281 42.7234H17.7024V43.2358ZM29.8094 60.4044L29.5526 60.8485L29.8094 60.4044ZM88.2837 60.4044L88.5404 60.8485L88.2837 60.4044ZM100.391 43.2358V42.7234H99.865L99.8772 43.2474L100.391 43.2358ZM100.421 43.2358V43.7476H100.935V43.2358H100.421ZM100.421 36.34H100.935V35.8282H100.421V36.34ZM88.027 27.1554C92.8143 29.914 96.1285 33.1667 98.0099 36.5871L98.9102 36.0936C96.9169 32.47 93.4469 29.0953 88.5404 26.2678L88.027 27.1554ZM30.0661 27.1554C38.0435 22.5589 48.5306 20.2463 59.0465 20.2463C69.5624 20.2463 80.0496 22.5589 88.027 27.1554L88.5404 26.2678C80.3705 21.5603 69.6945 19.2214 59.0465 19.2214C48.3986 19.2214 37.7226 21.5603 29.5526 26.2678L30.0661 27.1554ZM20.0832 36.5871C21.964 33.1667 25.2782 29.914 30.0661 27.1554L29.5526 26.2678C24.6462 29.0953 21.1761 32.47 19.1829 36.0936L20.0832 36.5871ZM17.6951 36.8524H19.6327V35.8282H17.6951V36.8524ZM18.2085 43.2358V36.34H17.1816V43.2358H18.2085ZM17.7024 42.7234H17.6951V43.7476H17.7024V42.7234ZM30.0661 59.9609C21.9451 55.2814 18.0771 49.1976 18.2158 43.2474L17.1896 43.2236C17.0386 49.6819 21.2415 56.0592 29.5526 60.8485L30.0661 59.9609ZM88.027 59.9609C80.0496 64.5575 69.5618 66.8701 59.0465 66.8701C48.5313 66.8701 38.0435 64.5575 30.0661 59.9609L29.5526 60.8485C37.7226 65.5561 48.3986 67.8949 59.0465 67.8949C69.6945 67.8949 80.3705 65.5561 88.5404 60.8485L88.027 59.9609ZM99.8772 43.2474C100.016 49.1976 96.148 55.2814 88.027 59.9609L88.5404 60.8485C96.8516 56.0592 101.055 49.6819 100.904 43.2236L99.8772 43.2474ZM100.421 42.7234H100.391V43.7476H100.421V42.7234ZM99.9078 36.34V43.2358H100.935V36.34H99.9078ZM98.4597 36.8524H100.421V35.8282H98.4597V36.8524Z" fill="#060606"/>
<path d="M88.2882 50.5396C104.436 41.2356 104.436 26.1507 88.2882 16.8466C72.1408 7.5425 45.9608 7.5425 29.8135 16.8466C13.6662 26.1507 13.6662 41.2356 29.8135 50.5396C45.9608 59.8437 72.1408 59.8437 88.2882 50.5396Z" fill="white" stroke="#060606" stroke-width="1.68"/>
<path fill-rule="evenodd" clip-rule="evenodd" d="M139.839 63.2899C137.902 59.7682 134.509 56.4545 129.662 53.6612C113.515 44.3571 87.3352 44.3571 71.1879 53.6612C66.3407 56.4545 62.9489 59.7682 61.0119 63.2899H59.0742V70.185H59.0816C58.9367 76.3896 62.9721 82.6205 71.1879 87.3543C87.3352 96.6584 113.515 96.6584 129.662 87.3543C137.879 82.6205 141.914 76.3896 141.769 70.185H141.8V63.2899H139.839Z" fill="#74EB69"/>
<path d="M129.662 53.6612L129.405 54.1053L129.662 53.6612ZM139.839 63.2899L139.388 63.5363L139.535 63.8023H139.839V63.2899ZM71.1877 53.6612L71.4444 54.1053L71.1877 53.6612ZM61.0116 63.2899V63.8023H61.3154L61.4615 63.5363L61.0116 63.2899ZM59.074 63.2899V62.7774H58.5605V63.2899H59.074ZM59.074 70.185H58.5605V70.6974H59.074V70.185ZM59.0813 70.185L59.5942 70.1972L59.6064 69.6726H59.0813V70.185ZM71.1877 87.3542L70.9309 87.7977L71.1877 87.3542ZM129.662 87.3542L129.919 87.7977L129.662 87.3542ZM141.769 70.185V69.6726H141.243L141.255 70.1972L141.769 70.185ZM141.8 70.185V70.6974H142.313V70.185H141.8ZM141.8 63.2899H142.313V62.7774H141.8V63.2899ZM129.405 54.1053C134.193 56.8638 137.507 60.1165 139.388 63.5363L140.289 63.0434C138.295 59.4198 134.826 56.0445 129.919 53.2177L129.405 54.1053ZM71.4444 54.1053C79.4218 49.5087 89.9096 47.1955 100.425 47.1955C110.94 47.1955 121.428 49.5087 129.405 54.1053L129.919 53.2177C121.749 48.5101 111.073 46.1707 100.425 46.1707C89.7769 46.1707 79.1009 48.5101 70.9309 53.2177L71.4444 54.1053ZM61.4615 63.5363C63.3429 60.1165 66.6571 56.8638 71.4444 54.1053L70.9309 53.2177C66.0245 56.0445 62.5544 59.4198 60.5611 63.0434L61.4615 63.5363ZM59.074 63.8023H61.0116V62.7774H59.074V63.8023ZM59.5868 70.185V63.2899H58.5605V70.185H59.5868ZM59.0813 69.6726H59.074V70.6974H59.0813V69.6726ZM71.4444 86.9108C63.3233 82.2312 59.4554 76.1474 59.5942 70.1972L58.5679 70.1734C58.4169 76.6312 62.6198 83.009 70.9309 87.7977L71.4444 86.9108ZM129.405 86.9108C121.428 91.5067 110.941 93.8199 100.425 93.8199C89.9089 93.8199 79.4218 91.5067 71.4444 86.9108L70.9309 87.7977C79.1009 92.5053 89.7769 94.8448 100.425 94.8448C111.073 94.8448 121.749 92.5053 129.919 87.7977L129.405 86.9108ZM141.255 70.1972C141.395 76.1474 137.526 82.2312 129.405 86.9108L129.919 87.7977C138.23 83.009 142.433 76.6312 142.282 70.1734L141.255 70.1972ZM141.8 69.6726H141.769V70.6974H141.8V69.6726ZM141.286 63.2899V70.185H142.313V63.2899H141.286ZM139.839 63.8023H141.8V62.7774H139.839V63.8023Z" fill="#060606"/>
<mask id="mask1_4897_8246" style="mask-type:alpha" maskUnits="userSpaceOnUse" x="58" y="44" width="85" height="50">
<path fill-rule="evenodd" clip-rule="evenodd" d="M139.839 61.9344C137.902 58.4121 134.509 55.0985 129.662 52.3057C113.515 43.0016 87.3352 43.0016 71.1879 52.3057C66.3407 55.0985 62.9489 58.4121 61.0119 61.9344H59.0742V68.8296H59.0816C58.9367 75.0336 62.9721 81.2644 71.1879 85.9982C87.3352 95.3024 113.515 95.3024 129.662 85.9982C137.879 81.2644 141.914 75.0336 141.769 68.8296H141.8V61.9344H139.839Z" fill="#71A407"/>
<path d="M139.839 61.9344L139.388 62.1809L139.535 62.4462H139.839V61.9344ZM61.0116 61.9344V62.4462H61.3154L61.4615 62.1809L61.0116 61.9344ZM59.074 61.9344V61.422H58.5605V61.9344H59.074ZM59.074 68.8296H58.5605V69.342H59.074V68.8296ZM59.0813 68.8296L59.5942 68.8411L59.6064 68.3171H59.0813V68.8296ZM141.769 68.8296V68.3171H141.243L141.255 68.8411L141.769 68.8296ZM141.8 68.8296V69.342H142.313V68.8296H141.8ZM141.8 61.9344H142.313V61.422H141.8V61.9344ZM129.405 52.7492C134.193 55.5078 137.507 58.7604 139.388 62.1809L140.289 61.6873C138.295 58.0638 134.826 54.6891 129.919 51.8616L129.405 52.7492ZM71.4444 52.7492C79.4218 48.1527 89.9096 45.84 100.425 45.84C110.94 45.84 121.428 48.1527 129.405 52.7492L129.919 51.8616C121.749 47.154 111.073 44.8152 100.425 44.8152C89.7769 44.8152 79.1009 47.154 70.9309 51.8616L71.4444 52.7492ZM61.4615 62.1809C63.3429 58.7604 66.6571 55.5078 71.4444 52.7492L70.9309 51.8616C66.0245 54.6891 62.5544 58.0638 60.5611 61.6873L61.4615 62.1809ZM59.074 62.4462H61.0116V61.422H59.074V62.4462ZM59.5868 68.8296V61.9344H58.5605V68.8296H59.5868ZM59.0813 68.3171H59.074V69.342H59.0813V68.3171ZM71.4444 85.5547C63.3233 80.8752 59.4554 74.792 59.5942 68.8411L58.5679 68.8173C58.4169 75.2757 62.6198 81.6536 70.9309 86.4423L71.4444 85.5547ZM129.405 85.5547C121.428 90.1512 110.941 92.4639 100.425 92.4639C89.9089 92.4639 79.4218 90.1512 71.4444 85.5547L70.9309 86.4423C79.1009 91.1499 89.7769 93.4887 100.425 93.4887C111.073 93.4887 121.749 91.1499 129.919 86.4423L129.405 85.5547ZM141.255 68.8411C141.395 74.792 137.526 80.8752 129.405 85.5547L129.919 86.4423C138.23 81.6536 142.433 75.2757 142.282 68.8173L141.255 68.8411ZM141.8 68.3171H141.769V69.342H141.8V68.3171ZM141.286 61.9344V68.8296H142.313V61.9344H141.286ZM139.839 62.4462H141.8V61.422H139.839V62.4462Z" fill="#060606"/>
</mask>
<g mask="url(#mask1_4897_8246)">
<path d="M100.441 61.9387H59.0777V95.6312H100.441V61.9387Z" fill="#74EB69"/>
</g>
<path d="M129.662 53.6612L129.405 54.1053L129.662 53.6612ZM139.839 63.2899L139.388 63.5363L139.535 63.8023H139.839V63.2899ZM71.1877 53.6612L71.4444 54.1053L71.1877 53.6612ZM61.0116 63.2899V63.8023H61.3154L61.4615 63.5363L61.0116 63.2899ZM59.074 63.2899V62.7774H58.5605V63.2899H59.074ZM59.074 70.185H58.5605V70.6974H59.074V70.185ZM59.0813 70.185L59.5942 70.1972L59.6064 69.6726H59.0813V70.185ZM71.1877 87.3542L70.9309 87.7977L71.1877 87.3542ZM129.662 87.3542L129.919 87.7977L129.662 87.3542ZM141.769 70.185V69.6726H141.243L141.255 70.1972L141.769 70.185ZM141.8 70.185V70.6974H142.313V70.185H141.8ZM141.8 63.2899H142.313V62.7774H141.8V63.2899ZM129.405 54.1053C134.193 56.8638 137.507 60.1165 139.388 63.5363L140.289 63.0434C138.295 59.4198 134.826 56.0445 129.919 53.2177L129.405 54.1053ZM71.4444 54.1053C79.4218 49.5087 89.9096 47.1955 100.425 47.1955C110.94 47.1955 121.428 49.5087 129.405 54.1053L129.919 53.2177C121.749 48.5101 111.073 46.1707 100.425 46.1707C89.7769 46.1707 79.1009 48.5101 70.9309 53.2177L71.4444 54.1053ZM61.4615 63.5363C63.3429 60.1165 66.6571 56.8638 71.4444 54.1053L70.9309 53.2177C66.0245 56.0445 62.5544 59.4198 60.5611 63.0434L61.4615 63.5363ZM59.074 63.8023H61.0116V62.7774H59.074V63.8023ZM59.5868 70.185V63.2899H58.5605V70.185H59.5868ZM59.0813 69.6726H59.074V70.6974H59.0813V69.6726ZM71.4444 86.9108C63.3233 82.2312 59.4554 76.1474 59.5942 70.1972L58.5679 70.1734C58.4169 76.6312 62.6198 83.009 70.9309 87.7977L71.4444 86.9108ZM129.405 86.9108C121.428 91.5067 110.941 93.8199 100.425 93.8199C89.9089 93.8199 79.4218 91.5067 71.4444 86.9108L70.9309 87.7977C79.1009 92.5053 89.7769 94.8448 100.425 94.8448C111.073 94.8448 121.749 92.5053 129.919 87.7977L129.405 86.9108ZM141.255 70.1972C141.395 76.1474 137.526 82.2312 129.405 86.9108L129.919 87.7977C138.23 83.009 142.433 76.6312 142.282 70.1734L141.255 70.1972ZM141.8 69.6726H141.769V70.6974H141.8V69.6726ZM141.286 63.2899V70.185H142.313V63.2899H141.286ZM139.839 63.8023H141.8V62.7774H139.839V63.8023Z" fill="#060606"/>
<path d="M129.663 77.4925C145.811 68.1884 145.811 53.1035 129.663 43.7995C113.516 34.4954 87.3358 34.4954 71.1885 43.7995C55.0412 53.1035 55.0412 68.1884 71.1885 77.4925C87.3358 86.7966 113.516 86.7966 129.663 77.4925Z" fill="#74EB69" stroke="#060606" stroke-width="1.68"/>
<path d="M109.33 50.7342C106.466 48.5033 102.091 48.9377 97.3773 50.262L93.9524 46.9783L90.4836 48.1794L93.818 51.3766L91.0698 52.3569L87.7134 49.1384L84.2465 50.3389L87.6688 53.6221L85.4787 54.4041L85.4671 54.3938L80.6816 56.0494L82.9084 58.1845L85.4268 57.3109C86.8326 56.8247 87.7801 57.1364 88.3363 57.4957L92.2379 61.2371C92.3633 61.194 92.4906 61.1564 92.6193 61.1242L92.2525 61.2511L97.7171 66.4925C97.9212 66.7688 98.0851 67.2654 97.1046 67.6064C97.1725 67.6131 94.582 68.4787 94.582 68.4787L96.3822 71.1049L100.897 69.5414L103.388 68.6952L106.853 72.0163L110.319 70.8169L106.891 67.5301L109.679 66.5864L113.088 69.858L116.558 68.6568L113.101 65.3407C118.732 63.1288 121.932 60.8686 119.148 57.5373C116.907 54.8544 113.65 54.4383 109.861 55.1264C111.257 53.8399 111.43 52.3648 109.33 50.7342ZM111.882 59.5168C114.473 61.9984 106.802 64.2695 104.452 65.0851L99.8638 60.6838C102.216 59.87 109.183 56.9278 111.882 59.5168ZM103.794 53.8667C106.148 56.125 99.7214 57.9917 97.7635 58.6694L93.6016 54.678C95.56 54.0003 101.338 51.5114 103.794 53.8667Z" fill="#060606"/>
<path fill-rule="evenodd" clip-rule="evenodd" d="M139.839 53.1903C137.902 49.668 134.509 46.3543 129.662 43.5616C113.515 34.2575 87.3352 34.2575 71.1879 43.5616C66.3407 46.3543 62.9489 49.668 61.0119 53.1903H59.0742V60.0855H59.0816C58.9367 66.2894 62.9721 72.5203 71.1879 77.2541C87.3352 86.5582 113.515 86.5582 129.662 77.2541C137.879 72.5203 141.914 66.2894 141.769 60.0855H141.8V53.1903H139.839Z" fill="#74EB69"/>
<path d="M129.662 43.5616L129.405 44.0051L129.662 43.5616ZM139.839 53.1902L139.388 53.4367L139.535 53.7021H139.839V53.1902ZM71.1877 43.5616L71.4444 44.0051L71.1877 43.5616ZM61.0116 53.1902V53.7021H61.3154L61.4615 53.4367L61.0116 53.1902ZM59.074 53.1902V52.6778H58.5605V53.1902H59.074ZM59.074 60.0854H58.5605V60.5978H59.074V60.0854ZM59.0813 60.0854L59.5942 60.097L59.6064 59.573H59.0813V60.0854ZM71.1877 77.254L70.9309 77.6981L71.1877 77.254ZM129.662 77.254L129.919 77.6981L129.662 77.254ZM141.769 60.0854V59.573H141.243L141.255 60.097L141.769 60.0854ZM141.8 60.0854V60.5978H142.313V60.0854H141.8ZM141.8 53.1902H142.313V52.6778H141.8V53.1902ZM129.405 44.0051C134.193 46.7636 137.507 50.0163 139.388 53.4367L140.289 52.9432C138.295 49.3196 134.826 45.945 129.919 43.1175L129.405 44.0051ZM71.4444 44.0051C79.4218 39.4085 89.9096 37.0959 100.425 37.0959C110.94 37.0959 121.428 39.4085 129.405 44.0051L129.919 43.1175C121.749 38.4099 111.073 36.071 100.425 36.071C89.7769 36.071 79.1009 38.4099 70.9309 43.1175L71.4444 44.0051ZM61.4615 53.4367C63.3429 50.0163 66.6571 46.7636 71.4444 44.0051L70.9309 43.1175C66.0245 45.945 62.5544 49.3196 60.5611 52.9432L61.4615 53.4367ZM59.074 53.7021H61.0116V52.6778H59.074V53.7021ZM59.5868 60.0854V53.1902H58.5605V60.0854H59.5868ZM59.0813 59.573H59.074V60.5978H59.0813V59.573ZM71.4444 76.8105C63.3233 72.131 59.4554 66.0478 59.5942 60.097L58.5679 60.0732C58.4169 66.5316 62.6198 72.9094 70.9309 77.6981L71.4444 76.8105ZM129.405 76.8105C121.428 81.4071 110.941 83.7197 100.425 83.7197C89.9089 83.7197 79.4218 81.4071 71.4444 76.8105L70.9309 77.6981C79.1009 82.4057 89.7769 84.7446 100.425 84.7446C111.073 84.7446 121.749 82.4057 129.919 77.6981L129.405 76.8105ZM141.255 60.097C141.395 66.0478 137.526 72.131 129.405 76.8105L129.919 77.6981C138.23 72.9094 142.433 66.5316 142.282 60.0732L141.255 60.097ZM141.8 59.573H141.769V60.5978H141.8V59.573ZM141.286 53.1902V60.0854H142.313V53.1902H141.286ZM139.839 53.7021H141.8V52.6778H139.839V53.7021Z" fill="#060606"/>
<mask id="mask2_4897_8246" style="mask-type:alpha" maskUnits="userSpaceOnUse" x="58" y="34" width="85" height="50">
<path fill-rule="evenodd" clip-rule="evenodd" d="M139.838 51.8426C137.901 48.3203 134.509 45.0067 129.662 42.2139C113.514 32.9098 87.3346 32.9098 71.1873 42.2139C66.3401 45.0067 62.9483 48.3203 61.0113 51.8426H59.0742V58.7378H59.0803C58.9355 64.9417 62.9715 71.1726 71.1873 75.9064C87.3346 85.2106 113.514 85.2106 129.662 75.9064C137.878 71.1726 141.913 64.9417 141.769 58.7378H141.8V51.8426H139.838Z" fill="#71A407"/>
<path d="M139.838 51.8426L139.388 52.089L139.534 52.355H139.838V51.8426ZM61.011 51.8426V52.355H61.3148L61.4609 52.089L61.011 51.8426ZM59.074 51.8426V51.3302H58.5605V51.8426H59.074ZM59.074 58.7377H58.5605V59.2502H59.074V58.7377ZM59.0801 58.7377L59.5935 58.7493L59.6058 58.2253H59.0801V58.7377ZM141.768 58.7377V58.2253H141.243L141.255 58.7493L141.768 58.7377ZM141.8 58.7377V59.2502H142.313V58.7377H141.8ZM141.8 51.8426H142.313V51.3302H141.8V51.8426ZM129.405 42.6574C134.193 45.4159 137.507 48.6686 139.388 52.089L140.288 51.5955C138.295 47.9719 134.825 44.5973 129.918 41.7698L129.405 42.6574ZM71.4438 42.6574C79.4212 38.0608 89.9089 35.7482 100.424 35.7482C110.939 35.7482 121.427 38.0608 129.405 42.6574L129.918 41.7698C121.748 37.0622 111.072 34.7234 100.424 34.7234C89.7763 34.7234 79.1003 37.0622 70.9303 41.7698L71.4438 42.6574ZM61.4609 52.089C63.3423 48.6686 66.6565 45.4159 71.4438 42.6574L70.9303 41.7698C66.0239 44.5973 62.5538 47.9719 60.5605 51.5955L61.4609 52.089ZM59.074 52.355H61.011V51.3302H59.074V52.355ZM59.5868 58.7377V51.8426H58.5605V58.7377H59.5868ZM59.0801 58.2253H59.074V59.2502H59.0801V58.2253ZM71.4438 75.4629C63.3228 70.7833 59.4548 64.7002 59.5935 58.7493L58.5673 58.7255C58.4163 65.1839 62.6192 71.5617 70.9303 76.3505L71.4438 75.4629ZM129.405 75.4629C121.427 80.0594 110.94 82.3721 100.424 82.3721C89.9083 82.3721 79.4212 80.0594 71.4438 75.4629L70.9303 76.3505C79.1003 81.058 89.7763 83.3969 100.424 83.3969C111.072 83.3969 121.748 81.058 129.918 76.3505L129.405 75.4629ZM141.255 58.7493C141.394 64.7002 137.526 70.7833 129.405 75.4629L129.918 76.3505C138.229 71.5617 142.432 65.1839 142.281 58.7255L141.255 58.7493ZM141.8 58.2253H141.768V59.2502H141.8V58.2253ZM141.286 51.8426V58.7377H142.313V51.8426H141.286ZM139.838 52.355H141.8V51.3302H139.838V52.355Z" fill="#060606"/>
</mask>
<g mask="url(#mask2_4897_8246)">
<path d="M100.441 51.8414H59.0777V85.5339H100.441V51.8414Z" fill="#74EB69"/>
</g>
<path d="M129.662 43.5616L129.405 44.0051L129.662 43.5616ZM139.839 53.1902L139.388 53.4367L139.535 53.7021H139.839V53.1902ZM71.1877 43.5616L71.4444 44.0051L71.1877 43.5616ZM61.0116 53.1902V53.7021H61.3154L61.4615 53.4367L61.0116 53.1902ZM59.074 53.1902V52.6778H58.5605V53.1902H59.074ZM59.074 60.0854H58.5605V60.5978H59.074V60.0854ZM59.0813 60.0854L59.5942 60.097L59.6064 59.573H59.0813V60.0854ZM71.1877 77.254L70.9309 77.6981L71.1877 77.254ZM129.662 77.254L129.919 77.6981L129.662 77.254ZM141.769 60.0854V59.573H141.243L141.255 60.097L141.769 60.0854ZM141.8 60.0854V60.5978H142.313V60.0854H141.8ZM141.8 53.1902H142.313V52.6778H141.8V53.1902ZM129.405 44.0051C134.193 46.7636 137.507 50.0163 139.388 53.4367L140.289 52.9432C138.295 49.3196 134.826 45.945 129.919 43.1175L129.405 44.0051ZM71.4444 44.0051C79.4218 39.4085 89.9096 37.0959 100.425 37.0959C110.94 37.0959 121.428 39.4085 129.405 44.0051L129.919 43.1175C121.749 38.4099 111.073 36.071 100.425 36.071C89.7769 36.071 79.1009 38.4099 70.9309 43.1175L71.4444 44.0051ZM61.4615 53.4367C63.3429 50.0163 66.6571 46.7636 71.4444 44.0051L70.9309 43.1175C66.0245 45.945 62.5544 49.3196 60.5611 52.9432L61.4615 53.4367ZM59.074 53.7021H61.0116V52.6778H59.074V53.7021ZM59.5868 60.0854V53.1902H58.5605V60.0854H59.5868ZM59.0813 59.573H59.074V60.5978H59.0813V59.573ZM71.4444 76.8105C63.3233 72.131 59.4554 66.0478 59.5942 60.097L58.5679 60.0732C58.4169 66.5316 62.6198 72.9094 70.9309 77.6981L71.4444 76.8105ZM129.405 76.8105C121.428 81.4071 110.941 83.7197 100.425 83.7197C89.9089 83.7197 79.4218 81.4071 71.4444 76.8105L70.9309 77.6981C79.1009 82.4057 89.7769 84.7446 100.425 84.7446C111.073 84.7446 121.749 82.4057 129.919 77.6981L129.405 76.8105ZM141.255 60.097C141.395 66.0478 137.526 72.131 129.405 76.8105L129.919 77.6981C138.23 72.9094 142.433 66.5316 142.282 60.0732L141.255 60.097ZM141.8 59.573H141.769V60.5978H141.8V59.573ZM141.286 53.1902V60.0854H142.313V53.1902H141.286ZM139.839 53.7021H141.8V52.6778H139.839V53.7021Z" fill="#060606"/>
<path d="M129.661 67.3924C145.809 58.0883 145.809 43.0035 129.661 33.6994C113.514 24.3953 87.3339 24.3953 71.1866 33.6994C55.0392 43.0035 55.0392 58.0883 71.1866 67.3924C87.3339 76.6965 113.514 76.6965 129.661 67.3924Z" fill="#74EB69" stroke="#060606" stroke-width="1.68"/>
<path d="M109.328 40.6341C106.464 38.4038 102.089 38.8382 97.3753 40.1626L93.9505 36.8782L90.4817 38.0793L93.816 41.2771L91.0678 42.2574L87.7115 39.0383L84.2445 40.2388L87.6669 43.5226L85.4768 44.304L85.4658 44.2937L80.6797 45.9499L82.9071 48.0844L85.4254 47.2108C86.8307 46.7246 87.7781 47.0364 88.3343 47.3963L92.2359 51.1376C92.3613 51.094 92.4886 51.0562 92.6174 51.0241L92.2506 51.1516L97.7158 56.393C97.9193 56.6687 98.0831 57.1653 97.1027 57.5063C97.1705 57.5136 94.5801 58.3792 94.5801 58.3792L96.3802 61.0048L100.895 59.4419L103.386 58.5952L106.851 61.9162L110.317 60.7168L106.889 57.4306L109.677 56.4863L113.086 59.7579L116.556 58.5567L113.099 55.2406C118.73 53.0287 121.93 50.7685 119.146 47.4372C116.905 44.7543 113.648 44.3388 109.859 45.0269C111.256 43.7404 111.428 42.2653 109.328 40.6341ZM111.88 49.4167C114.471 51.8983 106.8 54.17 104.45 54.985L99.8619 50.5843C102.215 49.7699 109.181 46.8277 111.88 49.4167ZM103.792 43.7666C106.146 46.0255 99.7194 47.8916 97.7616 48.57L93.5996 44.5785C95.5581 43.9002 101.336 41.4113 103.792 43.7666Z" fill="#060606"/>
<path fill-rule="evenodd" clip-rule="evenodd" d="M139.839 43.5616C137.902 40.04 134.509 36.7263 129.662 33.933C113.515 24.6294 87.3352 24.6294 71.1879 33.933C66.3407 36.7263 62.9489 40.04 61.0119 43.5616H59.0742V50.4568H59.0815C58.9367 56.6614 62.9721 62.8922 71.1879 67.626C87.3352 76.9302 113.515 76.9302 129.662 67.626C137.879 62.8922 141.914 56.6614 141.769 50.4568H141.8V43.5616H139.839Z" fill="#74EB69"/>
<path d="M129.662 33.933L129.405 34.3772L129.662 33.933ZM139.839 43.5617L139.388 43.8088L139.535 44.0742H139.839V43.5617ZM71.1877 33.933L71.4444 34.3772L71.1877 33.933ZM61.0117 43.5617V44.0742H61.3154L61.4615 43.8088L61.0117 43.5617ZM59.074 43.5617V43.0493H58.5605V43.5617H59.074ZM59.074 50.4569H58.5605V50.9693H59.074V50.4569ZM59.0813 50.4569L59.5942 50.4691L59.6064 49.945H59.0813V50.4569ZM71.1877 67.6261L70.931 68.0702L71.1877 67.6261ZM129.662 67.6261L129.919 68.0702L129.662 67.6261ZM141.769 50.4569V49.945H141.243L141.256 50.4691L141.769 50.4569ZM141.8 50.4569V50.9693H142.313V50.4569H141.8ZM141.8 43.5617H142.313V43.0493H141.8V43.5617ZM129.405 34.3772C134.193 37.1357 137.507 40.3884 139.388 43.8088L140.289 43.3153C138.295 39.6917 134.826 36.317 129.919 33.4896L129.405 34.3772ZM71.4444 34.3772C79.4218 29.7806 89.9096 27.468 100.425 27.468C110.94 27.468 121.428 29.7806 129.405 34.3772L129.919 33.4896C121.749 28.782 111.073 26.4431 100.425 26.4431C89.7769 26.4431 79.1009 28.782 70.931 33.4896L71.4444 34.3772ZM61.4615 43.8088C63.343 40.3884 66.6571 37.1357 71.4444 34.3772L70.931 33.4896C66.0245 36.317 62.5544 39.6917 60.5612 43.3153L61.4615 43.8088ZM59.074 44.0742H61.0117V43.0493H59.074V44.0742ZM59.5868 50.4569V43.5617H58.5605V50.4569H59.5868ZM59.0813 49.945H59.074V50.9693H59.0813V49.945ZM71.4444 67.1826C63.3234 62.5031 59.4554 56.4193 59.5942 50.4691L58.5679 50.4453C58.4169 56.9036 62.6199 63.2809 70.931 68.0702L71.4444 67.1826ZM129.405 67.1826C121.428 71.7792 110.941 74.0918 100.425 74.0918C89.9089 74.0918 79.4218 71.7792 71.4444 67.1826L70.931 68.0702C79.1009 72.7778 89.7769 75.1166 100.425 75.1166C111.073 75.1166 121.749 72.7778 129.919 68.0702L129.405 67.1826ZM141.256 50.4691C141.395 56.4193 137.526 62.5031 129.405 67.1826L129.919 68.0702C138.23 63.2809 142.433 56.9036 142.282 50.4453L141.256 50.4691ZM141.8 49.945H141.769V50.9693H141.8V49.945ZM141.286 43.5617V50.4569H142.313V43.5617H141.286ZM139.839 44.0742H141.8V43.0493H139.839V44.0742Z" fill="#060606"/>
<mask id="mask3_4897_8246" style="mask-type:alpha" maskUnits="userSpaceOnUse" x="58" y="25" width="85" height="49">
<path fill-rule="evenodd" clip-rule="evenodd" d="M139.838 42.2153C137.901 38.6936 134.509 35.38 129.662 32.5867C113.514 23.2831 87.3346 23.2831 71.1873 32.5867C66.3401 35.38 62.9483 38.6936 61.0113 42.2153H59.0742V49.1105H59.0803C58.9355 55.3151 62.9715 61.5459 71.1873 66.2797C87.3346 75.5839 113.514 75.5839 129.662 66.2797C137.878 61.5459 141.913 55.3151 141.769 49.1105H141.8V42.2153H139.838Z" fill="#71A407"/>
<path d="M139.838 42.2153L139.388 42.4617L139.534 42.7277H139.838V42.2153ZM61.0111 42.2153V42.7277H61.3148L61.4609 42.4617L61.0111 42.2153ZM59.074 42.2153V41.7028H58.5605V42.2153H59.074ZM59.074 49.1104H58.5605V49.6229H59.074V49.1104ZM59.0801 49.1104L59.5936 49.1226L59.6058 48.598H59.0801V49.1104ZM141.768 49.1104V48.598H141.243L141.255 49.1226L141.768 49.1104ZM141.8 49.1104V49.6229H142.313V49.1104H141.8ZM141.8 42.2153H142.313V41.7028H141.8V42.2153ZM129.405 33.0307C134.193 35.7892 137.507 39.0419 139.388 42.4617L140.288 41.9688C138.295 38.3453 134.825 34.9706 129.918 32.1431L129.405 33.0307ZM71.4438 33.0307C79.4212 28.4341 89.909 26.1209 100.424 26.1209C110.94 26.1209 121.428 28.4341 129.405 33.0307L129.918 32.1431C121.748 27.4355 111.072 25.0967 100.424 25.0967C89.7763 25.0967 79.1003 27.4355 70.9303 32.1431L71.4438 33.0307ZM61.4609 42.4617C63.3423 39.0419 66.6565 35.7892 71.4438 33.0307L70.9303 32.1431C66.0239 34.9706 62.5538 38.3453 60.5606 41.9688L61.4609 42.4617ZM59.074 42.7277H61.0111V41.7028H59.074V42.7277ZM59.5868 49.1104V42.2153H58.5605V49.1104H59.5868ZM59.0801 48.598H59.074V49.6229H59.0801V48.598ZM71.4438 65.8362C63.3228 61.1567 59.4548 55.0728 59.5936 49.1226L58.5673 49.0988C58.4163 55.5572 62.6192 61.9344 70.9303 66.7237L71.4438 65.8362ZM129.405 65.8362C121.428 70.4327 110.94 72.7453 100.424 72.7453C89.9084 72.7453 79.4212 70.4327 71.4438 65.8362L70.9303 66.7237C79.1003 71.4313 89.7763 73.7702 100.424 73.7702C111.072 73.7702 121.748 71.4313 129.918 66.7237L129.405 65.8362ZM141.255 49.1226C141.394 55.0728 137.526 61.1567 129.405 65.8362L129.918 66.7237C138.229 61.9344 142.432 55.5572 142.281 49.0988L141.255 49.1226ZM141.8 48.598H141.768V49.6229H141.8V48.598ZM141.286 42.2153V49.1104H142.313V42.2153H141.286ZM139.838 42.7277H141.8V41.7028H139.838V42.7277Z" fill="#060606"/>
</mask>
<g mask="url(#mask3_4897_8246)">
<path d="M100.441 42.2117H59.0777V75.9041H100.441V42.2117Z" fill="#74EB69"/>
</g>
<path d="M129.662 33.933L129.405 34.3772L129.662 33.933ZM139.839 43.5617L139.388 43.8088L139.535 44.0742H139.839V43.5617ZM71.1877 33.933L71.4444 34.3772L71.1877 33.933ZM61.0117 43.5617V44.0742H61.3154L61.4615 43.8088L61.0117 43.5617ZM59.074 43.5617V43.0493H58.5605V43.5617H59.074ZM59.074 50.4569H58.5605V50.9693H59.074V50.4569ZM59.0813 50.4569L59.5942 50.4691L59.6064 49.945H59.0813V50.4569ZM71.1877 67.6261L70.931 68.0702L71.1877 67.6261ZM129.662 67.6261L129.919 68.0702L129.662 67.6261ZM141.769 50.4569V49.945H141.243L141.256 50.4691L141.769 50.4569ZM141.8 50.4569V50.9693H142.313V50.4569H141.8ZM141.8 43.5617H142.313V43.0493H141.8V43.5617ZM129.405 34.3772C134.193 37.1357 137.507 40.3884 139.388 43.8088L140.289 43.3153C138.295 39.6917 134.826 36.317 129.919 33.4896L129.405 34.3772ZM71.4444 34.3772C79.4218 29.7806 89.9096 27.468 100.425 27.468C110.94 27.468 121.428 29.7806 129.405 34.3772L129.919 33.4896C121.749 28.782 111.073 26.4431 100.425 26.4431C89.7769 26.4431 79.1009 28.782 70.931 33.4896L71.4444 34.3772ZM61.4615 43.8088C63.343 40.3884 66.6571 37.1357 71.4444 34.3772L70.931 33.4896C66.0245 36.317 62.5544 39.6917 60.5612 43.3153L61.4615 43.8088ZM59.074 44.0742H61.0117V43.0493H59.074V44.0742ZM59.5868 50.4569V43.5617H58.5605V50.4569H59.5868ZM59.0813 49.945H59.074V50.9693H59.0813V49.945ZM71.4444 67.1826C63.3234 62.5031 59.4554 56.4193 59.5942 50.4691L58.5679 50.4453C58.4169 56.9036 62.6199 63.2809 70.931 68.0702L71.4444 67.1826ZM129.405 67.1826C121.428 71.7792 110.941 74.0918 100.425 74.0918C89.9089 74.0918 79.4218 71.7792 71.4444 67.1826L70.931 68.0702C79.1009 72.7778 89.7769 75.1166 100.425 75.1166C111.073 75.1166 121.749 72.7778 129.919 68.0702L129.405 67.1826ZM141.256 50.4691C141.395 56.4193 137.526 62.5031 129.405 67.1826L129.919 68.0702C138.23 63.2809 142.433 56.9036 142.282 50.4453L141.256 50.4691ZM141.8 49.945H141.769V50.9693H141.8V49.945ZM141.286 43.5617V50.4569H142.313V43.5617H141.286ZM139.839 44.0742H141.8V43.0493H139.839V44.0742Z" fill="#060606"/>
<path d="M129.661 57.7594C145.809 48.4553 145.809 33.3704 129.661 24.0663C113.514 14.7622 87.3339 14.7622 71.1866 24.0663C55.0392 33.3704 55.0392 48.4553 71.1866 57.7594C87.3339 67.0635 113.514 67.0635 129.661 57.7594Z" fill="white" stroke="#060606" stroke-width="1.68"/>
</svg>
