<svg width="138" height="231" viewBox="0 0 138 231" fill="none" xmlns="http://www.w3.org/2000/svg">
<g clip-path="url(#clip0_4897_8236)">
<path d="M130.36 75.0592C130.36 116.475 101.177 166.837 65.1798 187.544C29.182 208.253 9.1574e-07 191.465 0 150.05C-9.15733e-07 108.633 29.182 58.2718 65.1798 37.5637C101.177 16.8557 130.36 33.6429 130.36 75.0592ZM16.295 140.676C16.295 171.737 38.1814 184.328 65.1798 168.797C92.1785 153.266 114.065 115.495 114.065 84.4325C114.065 53.3707 92.1785 40.7804 65.1798 56.3114C38.1814 71.8424 16.295 109.614 16.295 140.676Z" fill="#060606"/>
<mask id="mask0_4897_8236" style="mask-type:luminance" maskUnits="userSpaceOnUse" x="7" y="34" width="131" height="168">
<path d="M137.478 80.3757C137.478 121.792 108.297 172.153 72.299 192.862C36.3011 213.57 7.11914 196.782 7.11914 155.366C7.11914 113.95 36.3011 63.5886 72.299 42.8805C108.297 22.1725 137.478 38.9597 137.478 80.3757ZM23.414 145.993C23.414 177.055 45.3006 189.645 72.299 174.114C99.2973 158.583 121.183 120.812 121.183 89.7497C121.183 58.6875 99.2973 46.0971 72.299 61.6282C45.3006 77.1589 23.414 114.93 23.414 145.993Z" fill="white"/>
</mask>
<g mask="url(#mask0_4897_8236)">
<path d="M137.478 80.3757C137.478 121.792 108.297 172.153 72.299 192.862C36.3011 213.57 7.11914 196.782 7.11914 155.366C7.11914 113.95 36.3011 63.5886 72.299 42.8805C108.297 22.1725 137.478 38.9597 137.478 80.3757ZM23.414 145.993C23.414 177.055 45.3006 189.645 72.299 174.114C99.2973 158.583 121.183 120.812 121.183 89.7497C121.183 58.6875 99.2973 46.0971 72.299 61.6282C45.3006 77.1589 23.414 114.93 23.414 145.993Z" fill="#141414" stroke="#060606" stroke-width="3"/>
</g>
<path d="M134.972 102.416C138.707 85.2232 138.259 69.4699 133.69 57.3622C129.122 45.2542 120.663 37.3978 109.496 34.8931C98.3293 32.3885 85.0151 35.361 71.4179 43.3944C57.8204 51.4279 44.6212 64.1199 33.6685 79.693C22.7157 95.2662 14.558 112.94 10.3377 130.241C6.11733 147.542 6.04578 163.602 10.133 176.172C14.2203 188.743 22.2616 197.194 33.131 200.343C44.0004 203.492 57.1533 201.18 70.7479 193.733L71.1357 174.767C60.9397 180.353 51.075 182.087 42.923 179.725C34.771 177.363 28.74 171.025 25.6745 161.597C22.609 152.169 22.6627 140.124 25.828 127.148C28.9932 114.173 35.1116 100.917 43.3261 89.2376C51.5407 77.5576 61.44 68.0386 71.638 62.0136C81.8355 55.9885 91.8212 53.7591 100.196 55.6376C108.572 57.5161 114.916 63.4084 118.343 72.4894C121.769 81.5706 122.105 93.3852 119.304 106.279L134.972 102.416Z" fill="white" stroke="#060606" stroke-width="1.5"/>
<path d="M17.7538 108.195C10.3094 125.57 6.6106 143.142 7.17541 158.449C7.74017 173.755 12.5403 186.031 20.9034 193.557C29.2667 201.082 40.7741 203.481 53.8142 200.416C66.8543 197.352 80.7743 188.977 93.6242 176.467C106.474 163.956 117.611 147.935 125.475 130.648C133.339 113.36 137.536 95.6711 137.478 80.0593C137.421 64.4472 133.112 51.6934 125.154 43.5839C117.197 35.4744 105.99 32.4154 93.1032 34.8352L87.902 55.5941C97.5675 53.7792 105.972 56.0735 111.94 62.1556C117.909 68.2378 121.14 77.8029 121.183 89.5124C121.226 101.221 118.078 114.487 112.181 127.454C106.283 140.419 97.9305 152.435 88.2926 161.818C78.6553 171.201 68.2155 177.482 58.4354 179.78C48.6553 182.078 40.0247 180.28 33.7523 174.635C27.48 168.991 23.8799 159.784 23.4563 148.304C23.0327 136.824 25.8068 123.645 31.3901 110.614L17.7538 108.195Z" fill="#479740"/>
<path d="M17.7538 108.195C10.3808 125.404 6.68008 142.81 7.16067 158.018C7.64125 173.227 12.2795 185.493 20.4377 193.129C28.5959 200.765 39.8733 203.396 52.7194 200.661C65.5656 197.926 79.3495 189.959 92.1759 177.855L87.2072 162.859C77.5872 171.937 67.2489 177.913 57.6143 179.963C47.9798 182.015 39.5217 180.042 33.403 174.314C27.2844 168.587 23.8057 159.388 23.4453 147.982C23.0848 136.575 25.8603 123.52 31.3901 110.614L17.7538 108.195Z" fill="#74EB69"/>
<path d="M137.478 80.3757C137.478 121.792 108.297 172.153 72.299 192.862C36.3011 213.57 7.11914 196.782 7.11914 155.366C7.11914 113.95 36.3011 63.5886 72.299 42.8805C108.297 22.1725 137.478 38.9597 137.478 80.3757ZM23.414 145.993C23.414 177.055 45.3006 189.645 72.299 174.114C99.2973 158.583 121.183 120.812 121.183 89.7497C121.183 58.6875 99.2973 46.0971 72.299 61.6282C45.3006 77.1589 23.414 114.93 23.414 145.993Z" stroke="#060606" stroke-width="1.5"/>
</g>
<defs>
<clipPath id="clip0_4897_8236">
<rect width="138" height="231" fill="white"/>
</clipPath>
</defs>
</svg>
